<?xml version="1.0" encoding="utf-8" ?><svg xmlns="http://www.w3.org/2000/svg" xmlns:xlink="http://www.w3.org/1999/xlink" width="1684" height="2528" viewBox="0 0 1684 2528"><path fill="#FEFEFE" d="M0 0L1684 0L1684 2528L0 2528L0 0Z"/><path fill="#156988" d="M760.739 1761.76C767.849 1759.39 774.649 1757.66 782.201 1755.37C917.4 1714.31 1064.09 1622.5 1143.5 1444.42C1151.96 1422.83 1153.03 1402.54 1165.38 1384.22C1192.7 1343.66 1271.23 1350.62 1273.63 1420.94C1272.15 1443.99 1259.91 1472.25 1252.66 1490.31C1226.93 1554.45 1193.2 1594.8 1156.84 1643.29C1156.04 1650.57 1155.05 1652.52 1155.24 1659.98C1206.61 1619.74 1254.28 1569.35 1297.14 1511.06C1322.01 1477.67 1339.66 1440.18 1357.45 1398.39C1379.21 1347.25 1450.12 1344.72 1469.33 1401.03C1475.33 1418.62 1470.62 1441.07 1465.85 1457.88C1441.07 1549.09 1375.07 1655.11 1321.71 1710.61C1255.46 1787.39 1141.4 1857.48 1060.15 1884.16C1018.42 1899.42 976.011 1910.04 933.249 1915.92C921.21 1917.67 902.634 1920.5 890.593 1920.44C878.895 1922.32 860.468 1922.23 848.471 1922.11C796.043 1921.59 732.291 1915.94 681.385 1899.29C671.608 1897.68 655.955 1892.03 646.271 1888.65C610.997 1876.42 576.296 1860.74 542.391 1841.69C536.624 1838.46 521.435 1829.95 516.301 1825.33C503.013 1818.54 483.081 1803.58 470.769 1792.94C404.19 1735.39 325.278 1654.13 350.814 1520.93C353.774 1529.2 350.634 1543.94 350.418 1553.04C350.277 1558.99 350.893 1566.14 351.258 1572.11L350.887 1570.61C351.309 1574.13 351.694 1578 352.335 1581.42C350.372 1586.56 352.346 1599.08 353.346 1605.09C368.143 1694.03 424.25 1740.48 480.133 1764.82C491.79 1769.72 503.576 1773.9 515.46 1777.35C521.2 1778.98 534.026 1780.88 538.254 1785.52C545.545 1781.15 581.48 1791.21 593.221 1788.52C605.823 1785.63 675.403 1782.1 682.673 1775.02C701.394 1775.5 741.713 1766.59 760.739 1761.76Z"/><defs><linearGradient id="gradient_0" gradientUnits="userSpaceOnUse" x1="978.49506" y1="1834.0316" x2="1024.1689" y2="1325.0675"><stop offset="0" stop-color="#1B7BA2"/><stop offset="1" stop-color="#30D2CD"/></linearGradient></defs><path fill="url(#gradient_0)" d="M760.739 1761.76C767.849 1759.39 774.649 1757.66 782.201 1755.37C917.4 1714.31 1064.09 1622.5 1143.5 1444.42C1151.96 1422.83 1153.03 1402.54 1165.38 1384.22C1192.7 1343.66 1271.23 1350.62 1273.63 1420.94C1272.15 1443.99 1259.91 1472.25 1252.66 1490.31C1226.93 1554.45 1193.2 1594.8 1156.84 1643.29C1156.04 1650.57 1155.05 1652.52 1155.24 1659.98C1138.77 1674.46 1123.46 1683 1107.18 1695.7L1106.72 1695.61C1095.79 1701.97 1084.17 1710.5 1072.95 1717.41C1051.53 1730.81 1029.74 1742.85 1007.65 1753.49C989.346 1762.58 970.54 1769.79 952.044 1777.48C944.915 1780.45 919.115 1789.13 914.854 1792.84C905.998 1793.2 897.005 1799.03 890.128 1800.14C877.079 1802.26 861.276 1806.42 848.575 1807.69L848.618 1806.88C861.295 1800.31 864.928 1801.49 876.56 1798.49C890.427 1795.01 904.237 1791.04 917.978 1786.57C921.097 1785.52 927.373 1784.32 929.797 1782.32C925.542 1779.87 911.263 1787.6 909.856 1786.82C912.61 1782.88 920.096 1781.72 924.015 1780.96C923.669 1776.99 924.261 1778.49 922.471 1776.07C918.02 1775.79 916.275 1773.78 912.007 1775.4C910.658 1773.64 911.223 1774.66 910.316 1772.33L909.471 1777.86L908.278 1778.27C906.517 1775.67 905.744 1775.55 905.595 1772.75L907.215 1771.96L905.686 1769.92L904.024 1771.51C901.006 1770.12 897.192 1763.3 896.936 1763.26C887.901 1762.13 869.605 1770.91 860.588 1771.94C855.257 1769.31 824.927 1779.46 817.532 1780.41C795.656 1783.2 773.421 1784.26 751.699 1786.33C752.119 1786.67 744.241 1780.09 749.834 1784.35C746.688 1781.95 744.315 1788.97 738.18 1785.48C737.982 1783.26 737.758 1781.05 737.507 1778.85L736.174 1778.01C735.013 1781.46 735.571 1781.18 733.769 1782.97L731.386 1777.99C732.342 1772.09 757.593 1770.32 762.592 1763.02L760.739 1761.76Z"/><path fill="#E0FBF7" d="M1106.72 1695.61C1106.66 1695.75 1153.69 1646.41 1156.84 1643.29C1156.04 1650.57 1155.05 1652.52 1155.24 1659.98C1138.77 1674.46 1123.46 1683 1107.18 1695.7L1106.72 1695.61Z"/><defs><linearGradient id="gradient_1" gradientUnits="userSpaceOnUse" x1="1419.3324" y1="1344.0383" x2="1211.9364" y2="1748.4551"><stop offset="0" stop-color="#BCD246"/><stop offset="1" stop-color="#44B46C"/></linearGradient></defs><path fill="url(#gradient_1)" d="M1155.24 1659.98C1206.61 1619.74 1254.28 1569.35 1297.14 1511.06C1322.01 1477.67 1339.66 1440.18 1357.45 1398.39C1379.21 1347.25 1450.12 1344.72 1469.33 1401.03C1475.33 1418.62 1470.62 1441.07 1465.85 1457.88C1441.07 1549.09 1375.07 1655.11 1321.71 1710.61L1321.96 1703.26C1318.11 1694.31 1316.1 1702.04 1308.44 1697.23C1306.83 1693.75 1306.86 1692.81 1304.56 1691.01L1303.48 1694.75C1295.02 1698.55 1282.69 1706.48 1274.41 1707.65C1270.05 1709.1 1243.33 1730.84 1234.33 1735.1C1226.02 1735.05 1223.59 1741.05 1216.65 1736.56C1213.71 1738.71 1214.04 1740.24 1213.6 1745.35C1212.75 1739.7 1213.77 1741.53 1211.11 1738.92C1204.96 1738.88 1195.83 1736.06 1194.89 1724.96C1196.53 1722.49 1197.1 1722.05 1197.95 1718.81L1197.11 1721.74L1197.31 1721.69L1198.1 1719.14C1196.83 1712.72 1190.63 1706.9 1186.53 1705.41C1187.03 1709.32 1187.31 1708.39 1186.66 1711.73C1179.27 1708.8 1175.31 1685.67 1168.36 1685.67C1168.84 1688.75 1169.13 1689.46 1168.9 1692.55C1166.83 1692.66 1167.87 1692.85 1165.76 1690.68C1164.52 1686.09 1165.64 1683.34 1165.57 1678.61C1165.5 1673.99 1162.96 1675.75 1159.3 1671.28C1160.5 1669.45 1159.96 1670.16 1161.37 1668.49L1162.39 1667.3L1162.38 1665.9L1159.72 1666.19C1155.46 1674.22 1152.03 1669.73 1146.49 1673.57C1137.13 1680.06 1117.79 1699.05 1107.18 1695.7C1123.46 1683 1138.77 1674.46 1155.24 1659.98Z"/><defs><linearGradient id="gradient_2" gradientUnits="userSpaceOnUse" x1="1372.8616" y1="1506.0137" x2="1350.5891" y2="1717.1604"><stop offset="0" stop-color="#7ABC4B"/><stop offset="1" stop-color="#34A969"/></linearGradient></defs><path fill="url(#gradient_2)" d="M1274.41 1707.65C1278.67 1703.21 1284.12 1698.83 1288.78 1695.08C1303.7 1683.05 1317.7 1669.95 1331.85 1655.92C1373.85 1614.28 1411.11 1562.77 1442.2 1503.35C1450.69 1487.18 1456.37 1472.27 1464.08 1457.18L1465.85 1457.88C1441.07 1549.09 1375.07 1655.11 1321.71 1710.61L1321.96 1703.26C1318.11 1694.31 1316.1 1702.04 1308.44 1697.23C1306.83 1693.75 1306.86 1692.81 1304.56 1691.01L1303.48 1694.75C1295.02 1698.55 1282.69 1706.48 1274.41 1707.65Z"/><path fill="#75B257" d="M1200.5 1720.49L1205.12 1720.09C1207.65 1722.38 1206.67 1720.77 1207.69 1725.62C1203.03 1726.51 1203.64 1725.53 1200.5 1720.49Z"/><path fill="#33A472" d="M1107.18 1695.7C1117.79 1699.05 1137.13 1680.06 1146.49 1673.57C1152.03 1669.73 1155.46 1674.22 1159.72 1666.19L1162.38 1665.9L1162.39 1667.3L1161.37 1668.49C1159.96 1670.16 1160.5 1669.45 1159.3 1671.28C1162.96 1675.75 1165.5 1673.99 1165.57 1678.61C1165.64 1683.34 1164.52 1686.09 1165.76 1690.68C1167.87 1692.85 1166.83 1692.66 1168.9 1692.55C1169.13 1689.46 1168.84 1688.75 1168.36 1685.67C1175.31 1685.67 1179.27 1708.8 1186.66 1711.73C1187.31 1708.39 1187.03 1709.32 1186.53 1705.41C1190.63 1706.9 1196.83 1712.72 1198.1 1719.14L1197.31 1721.69L1197.11 1721.74L1197.95 1718.81C1197.1 1722.05 1196.53 1722.49 1194.89 1724.96C1195.83 1736.06 1204.96 1738.88 1211.11 1738.92C1213.77 1741.53 1212.75 1739.7 1213.6 1745.35C1209.46 1751.43 1181.02 1760.97 1177.87 1765.6C1180.3 1767.18 1182.12 1765.14 1185.15 1764.65C1179.69 1769.47 1157.43 1779.1 1150.61 1782.29C1101.19 1805.37 1048.87 1820.09 997.584 1829.81C979.233 1833.29 959.611 1832.73 941.909 1835.2L943.547 1835.62C940.949 1836.06 938.566 1836.8 936.195 1834.86L934.873 1831.07C931.704 1829.08 930.444 1828.77 928.3 1825L928.67 1823.36C931.349 1822.7 930.715 1823.38 932.784 1821.37C922.22 1820.07 930.34 1808.84 922.15 1800.38C921.612 1801.62 921.062 1802.84 920.5 1804.05L918.207 1801.54L918.259 1804.95L913.618 1806.97L912.789 1805.6C913.728 1799.14 916.819 1803.06 918.377 1795.51C916.574 1793.1 917.353 1793.91 914.854 1792.84C919.115 1789.13 944.915 1780.45 952.044 1777.48C970.54 1769.79 989.346 1762.58 1007.65 1753.49C1029.74 1742.85 1051.53 1730.81 1072.95 1717.41C1084.17 1710.5 1095.79 1701.97 1106.72 1695.61L1107.18 1695.7Z"/><defs><linearGradient id="gradient_3" gradientUnits="userSpaceOnUse" x1="1258.6477" y1="1662.1134" x2="1212.2489" y2="1834.187"><stop offset="0" stop-color="#34A868"/><stop offset="1" stop-color="#1A9379"/></linearGradient></defs><path fill="url(#gradient_3)" d="M1274.41 1707.65C1282.69 1706.48 1295.02 1698.55 1303.48 1694.75L1304.56 1691.01C1306.86 1692.81 1306.83 1693.75 1308.44 1697.23C1316.1 1702.04 1318.11 1694.31 1321.96 1703.26L1321.71 1710.61C1255.46 1787.39 1141.4 1857.48 1060.15 1884.16C1056.74 1882.55 1049.62 1884.32 1045.52 1884.83L1045.09 1883.61C1050 1883.08 1052.95 1880.65 1057.44 1879.26C1090.2 1869.09 1122.88 1851.86 1154.42 1835.29C1163.69 1830.43 1177.97 1824.04 1185.84 1816.47C1183.65 1813.86 1182.27 1814.15 1179.13 1813.57L1178.07 1813.39C1176.42 1811.14 1173.74 1807.39 1171.86 1807.09C1164.8 1805.96 1158.31 1791 1154.17 1787.72C1148.68 1783.37 1135.35 1792.49 1130.63 1797.83C1129.78 1798.78 1122.37 1796.22 1118.73 1798.85C1113.09 1801.88 1107.26 1802.98 1101.45 1805.2C1060.41 1820 1016.7 1832.22 974.613 1837.26C937.753 1841.68 897.08 1841.57 860.161 1840.33L859.773 1838.8L858.643 1839.44C862.785 1837.05 901.122 1838.66 908.235 1838.45L905.61 1838C915.35 1838.14 927.06 1839.66 936.195 1834.86C938.566 1836.8 940.949 1836.06 943.547 1835.62L941.909 1835.2C959.611 1832.73 979.233 1833.29 997.584 1829.81C1048.87 1820.09 1101.19 1805.37 1150.61 1782.29C1157.43 1779.1 1179.69 1769.47 1185.15 1764.65C1182.12 1765.14 1180.3 1767.18 1177.87 1765.6C1181.02 1760.97 1209.46 1751.43 1213.6 1745.35C1214.04 1740.24 1213.71 1738.71 1216.65 1736.56C1223.59 1741.05 1226.02 1735.05 1234.33 1735.1C1243.33 1730.84 1270.05 1709.1 1274.41 1707.65Z"/><path fill="#75B257" d="M1213.6 1745.35C1214.04 1740.24 1213.71 1738.71 1216.65 1736.56C1223.59 1741.05 1226.02 1735.05 1234.33 1735.1C1229.73 1739.01 1189.97 1764.15 1185.15 1764.65C1182.12 1765.14 1180.3 1767.18 1177.87 1765.6C1181.02 1760.97 1209.46 1751.43 1213.6 1745.35Z"/><path fill="#1D5E9A" d="M350.814 1520.93C353.774 1529.2 350.634 1543.94 350.418 1553.04C350.277 1558.99 350.893 1566.14 351.258 1572.11L350.887 1570.61C351.309 1574.13 351.694 1578 352.335 1581.42C350.372 1586.56 352.346 1599.08 353.346 1605.09C368.143 1694.03 424.25 1740.48 480.133 1764.82C491.79 1769.72 503.576 1773.9 515.46 1777.35C521.2 1778.98 534.026 1780.88 538.254 1785.52C543.708 1791.51 606.093 1791.45 616.146 1790.47L617.238 1791.92C616.039 1792.75 593.355 1794.85 590.765 1794.96C548.985 1796.77 508.661 1783.62 468.808 1766.89C458.739 1762.66 428.967 1739.18 422.248 1737.93C431.059 1749.78 451.481 1767.29 461.722 1778.1C465.956 1782.57 471.186 1784.29 476.618 1790.83L476.526 1794.38C478.247 1793.63 479.624 1792.66 481.309 1794.33C488.89 1801.85 497.096 1807.44 504.71 1814.87C507.438 1817.52 513.5 1818.59 516.74 1822.92L516.301 1825.33C503.013 1818.54 483.081 1803.58 470.769 1792.94C404.19 1735.39 325.278 1654.13 350.814 1520.93Z"/><path fill="#1A72AD" d="M682.673 1775.02C701.394 1775.5 741.713 1766.59 760.739 1761.76L762.592 1763.02C757.593 1770.32 732.342 1772.09 731.386 1777.99L733.769 1782.97C735.571 1781.18 735.013 1781.46 736.174 1778.01L737.507 1778.85C737.758 1781.05 737.982 1783.26 738.18 1785.48C744.315 1788.97 746.688 1781.95 749.834 1784.35C744.241 1780.09 752.119 1786.67 751.699 1786.33C773.421 1784.26 795.656 1783.2 817.532 1780.41C824.927 1779.46 855.257 1769.31 860.588 1771.94C854.551 1774.92 838.215 1778.74 831.648 1780.22C787.504 1790.13 744.915 1792.92 700.42 1788.29C691.305 1787.34 673.053 1782.12 666.018 1782.61C650.453 1783.68 632.561 1788.41 616.146 1790.47C606.093 1791.45 543.708 1791.51 538.254 1785.52C545.545 1781.15 581.48 1791.21 593.221 1788.52C605.823 1785.63 675.403 1782.1 682.673 1775.02Z"/><path fill="#1D5E9A" d="M681.385 1899.29C685.749 1897.64 686.899 1896.26 690.924 1899.93C693.634 1900.04 694.178 1899.3 696.243 1899.02C701.384 1898.33 709.515 1900.36 714.91 1902.04C738.544 1909.4 763.725 1909.4 787.598 1913.08L787.927 1914.54C785.366 1916.04 785.165 1915.86 782.496 1916.04C784.764 1916.9 792.745 1916.45 795.514 1916.4L792.138 1915.08L792.837 1913.53C800.007 1911.82 821.228 1916.46 829.714 1916.56C844.11 1916.73 859.161 1918.83 873.675 1918.59C878.303 1918.52 887.467 1915.69 890.593 1920.44C878.895 1922.32 860.468 1922.23 848.471 1922.11C796.043 1921.59 732.291 1915.94 681.385 1899.29Z"/><path fill="#247C73" d="M917.9 1812.97C920.078 1813.74 919.348 1813.23 921.226 1815.1L920.293 1818.62L918.461 1819.02L917.441 1817.72L917.9 1812.97Z"/><defs><linearGradient id="gradient_4" gradientUnits="userSpaceOnUse" x1="1046.4579" y1="1147.0287" x2="781.27081" y2="1388.9285"><stop offset="0" stop-color="#2CAA64"/><stop offset="1" stop-color="#12769E"/></linearGradient></defs><path fill="url(#gradient_4)" d="M869.759 1020.85C883.387 1013.11 933.148 1005.87 947.79 1009.37C998.125 1009.52 1048.96 1038.83 1088.23 1084.82C1110.91 1111.38 1129.33 1132.7 1156.49 1148.45C1237.02 1183.01 1281.18 1122.16 1355.91 1093.94C1394.01 1079.55 1426.57 1077.4 1465.29 1079.96C1468.79 1080.81 1472.2 1081.55 1475.66 1082.78C1462.97 1100.19 1432.63 1130.94 1417.48 1146.14C1387.78 1175.95 1346.79 1223.44 1313.83 1242.12C1288.27 1257.91 1265.81 1267.78 1238.44 1274.02C1187.25 1285.68 1134.24 1278.89 1086.15 1249.17C1077.11 1243.59 1062.91 1233.47 1054.99 1224.7C1035.82 1210.93 1014.52 1176.26 996.055 1158.75C993.333 1156.16 988.039 1151.68 985.844 1148.82C959.648 1129.97 945.323 1123.59 916.313 1121.85C883.705 1119.9 838.74 1152.64 858.04 1210.86C862.673 1216.88 866.601 1224.55 871.99 1229.69C877.464 1234.9 883.347 1239.45 889.036 1244.13C901.43 1254.22 913.772 1264.45 926.06 1274.83C928.529 1276.95 942.117 1288.67 943.265 1290.26C989.944 1321.44 1040.05 1389.74 1014.57 1472.8C1009.84 1488.21 997.039 1515.22 986.931 1523.22C980.334 1531.85 967.529 1543.76 959.914 1551.1C947.233 1563.32 934.393 1576.01 921.623 1587.95C900.082 1608.75 875.626 1633.42 853.701 1652.57L853.356 1649.88C859.157 1631.84 918.809 1591.25 926.885 1571.96C949.53 1517.89 923.934 1449.99 891.72 1420.05C884.562 1413.4 873.13 1402.43 867.828 1395.81L866.617 1394.27L861.193 1391.16C863.687 1399.61 869.257 1403.35 871.444 1406.57C875.432 1412.46 882.62 1443.41 881.23 1452.32C881.201 1452.5 877.567 1463.7 877.076 1466.06C870.703 1476.34 858.565 1500.12 848.266 1499.15C909.009 1438.38 856.452 1390.85 816.718 1360.13C796.819 1344.74 774.014 1325.19 755.055 1307.37C724.884 1279 700.579 1216.31 719.673 1163.87C720.52 1160.14 724.779 1149.08 726.227 1145.6C752.491 1082.56 822.216 1036.21 869.759 1020.85Z"/><defs><linearGradient id="gradient_5" gradientUnits="userSpaceOnUse" x1="1461.0409" y1="1154.7203" x2="1147.1393" y2="1153.4509"><stop offset="0" stop-color="#FFD339"/><stop offset="1" stop-color="#86C457"/></linearGradient></defs><path fill="url(#gradient_5)" d="M1156.49 1148.45C1237.02 1183.01 1281.18 1122.16 1355.91 1093.94C1394.01 1079.55 1426.57 1077.4 1465.29 1079.96C1468.79 1080.81 1472.2 1081.55 1475.66 1082.78C1462.97 1100.19 1432.63 1130.94 1417.48 1146.14C1387.78 1175.95 1346.79 1223.44 1313.83 1242.12C1288.27 1257.91 1265.81 1267.78 1238.44 1274.02C1187.25 1285.68 1134.24 1278.89 1086.15 1249.17C1077.11 1243.59 1062.91 1233.47 1054.99 1224.7L1057.94 1222.9L1057.77 1221.24C1052.65 1215.14 1022.93 1194.16 1031.07 1179.06L1032.36 1179C1033.89 1181.75 1033.51 1181.97 1035.38 1183.09C1036.64 1178.76 1036.61 1169.34 1035.68 1164.91L1033.25 1163.05C1035.07 1147.1 1050.14 1157.66 1037.27 1124.39L1036.83 1123.27L1037.15 1121.57C1047.16 1134.92 1074.31 1165.06 1086.4 1177.73C1086.51 1177.85 1090.96 1177.83 1091.84 1178.95C1097.24 1185.77 1131.1 1210.23 1136.26 1210.25C1141.1 1210.86 1148.19 1215.03 1151.21 1213.56C1152.7 1201.58 1147.81 1204.15 1147.7 1198.09L1151.45 1193.76L1151.58 1191.77L1147.39 1190.09L1146.83 1188.18L1147.93 1186.23C1150.17 1185.91 1150.51 1186.15 1152.44 1184.61C1156.03 1169.59 1147.06 1171.86 1149.83 1166.34C1153.9 1158.23 1156.37 1160.5 1156.49 1148.45Z"/><path fill="#75B257" d="M1054.99 1224.7L1057.94 1222.9L1057.77 1221.24C1052.65 1215.14 1022.93 1194.16 1031.07 1179.06L1032.36 1179C1033.89 1181.75 1033.51 1181.97 1035.38 1183.09C1036.64 1178.76 1036.61 1169.34 1035.68 1164.91L1033.25 1163.05C1035.07 1147.1 1050.14 1157.66 1037.27 1124.39L1036.83 1123.27L1037.15 1121.57C1047.16 1134.92 1074.31 1165.06 1086.4 1177.73C1086.51 1177.85 1090.96 1177.83 1091.84 1178.95C1097.24 1185.77 1131.1 1210.23 1136.26 1210.25C1141.5 1214.37 1149.99 1217.66 1155.8 1219.65C1207.86 1237.53 1265.82 1226.42 1313.16 1189.1C1317.85 1185.4 1329.13 1178.39 1332.21 1172.86C1335.12 1172.18 1337.88 1170.56 1340.06 1172.76C1347.64 1180.42 1342.95 1192.9 1348.7 1200.62C1352.96 1206.33 1350.43 1200.61 1353.47 1203.78C1344.82 1214.08 1329.28 1225.14 1319.29 1233.04C1314.98 1236.45 1307.72 1238.54 1305.16 1241.97L1305.19 1242.93C1309.98 1242.38 1310.14 1240.11 1313.83 1242.12C1288.27 1257.91 1265.81 1267.78 1238.44 1274.02C1187.25 1285.68 1134.24 1278.89 1086.15 1249.17C1077.11 1243.59 1062.91 1233.47 1054.99 1224.7Z"/><path fill="#D0C13E" d="M1465.29 1079.96C1468.79 1080.81 1472.2 1081.55 1475.66 1082.78C1462.97 1100.19 1432.63 1130.94 1417.48 1146.14C1387.78 1175.95 1346.79 1223.44 1313.83 1242.12C1310.14 1240.11 1309.98 1242.38 1305.19 1242.93L1305.16 1241.97C1307.72 1238.54 1314.98 1236.45 1319.29 1233.04C1329.28 1225.14 1344.82 1214.08 1353.47 1203.78C1350.43 1200.61 1352.96 1206.33 1348.7 1200.62C1342.95 1192.9 1347.64 1180.42 1340.06 1172.76C1337.88 1170.56 1335.12 1172.18 1332.21 1172.86C1336.83 1159.95 1397.36 1119.33 1410.96 1112.49C1417.84 1109.03 1466.02 1086.07 1467.25 1083.28L1465.29 1079.96Z"/><path fill="#33A472" d="M827.326 1102.96C843.286 1088.38 874.013 1085.56 892.178 1087.16C926.632 1090.18 958.594 1115.48 985.818 1145.96C986.113 1148.05 986.159 1147.09 985.844 1148.82C959.648 1129.97 945.323 1123.59 916.313 1121.85C883.705 1119.9 838.74 1152.64 858.04 1210.86C862.673 1216.88 866.601 1224.55 871.99 1229.69C877.464 1234.9 883.347 1239.45 889.036 1244.13C901.43 1254.22 913.772 1264.45 926.06 1274.83C928.529 1276.95 942.117 1288.67 943.265 1290.26C989.944 1321.44 1040.05 1389.74 1014.57 1472.8C1009.84 1488.21 997.039 1515.22 986.931 1523.22C980.334 1531.85 967.529 1543.76 959.914 1551.1C947.233 1563.32 934.393 1576.01 921.623 1587.95C923.755 1579.21 931.107 1572.46 935.26 1565.43C944.651 1549.54 953.125 1531.1 957.795 1510.91C965.08 1479.41 965.721 1444.15 955.898 1413.73C922.372 1309.92 817.352 1305.1 789.738 1217C784.634 1200.72 782.756 1180.35 786.894 1163.21C793.298 1136.68 806.729 1117.81 823.67 1106.22C824.811 1105.44 825.654 1104.92 826.681 1103.77C826.907 1103.52 827.111 1103.23 827.326 1102.96Z"/><path fill="#75B257" d="M943.265 1290.26C989.944 1321.44 1040.05 1389.74 1014.57 1472.8C1009.84 1488.21 997.039 1515.22 986.931 1523.22L986.329 1520.57C988.999 1511.7 992.629 1513.13 992.389 1503.61C994.518 1505.08 994.583 1505 996.923 1505.58C997.729 1500.95 998.389 1495.94 1000.89 1492.73C1008.5 1482.98 1013.04 1463.78 1014.89 1449.39C1015.91 1441.45 1012.82 1414.76 1009.93 1409.22C1007.78 1410.04 1007.87 1410.17 1005.71 1409.72C1001.49 1401.64 1005.41 1385.24 1003.05 1376.55C1002.41 1376.11 999.281 1373.96 999.077 1373.28C996 1363 994.509 1352.01 989.288 1343.63C976.971 1323.87 962.248 1312.07 947.084 1298.27C943.717 1295.21 943.694 1294.61 943.265 1290.26Z"/><path fill="#247C73" d="M827.326 1102.96C843.286 1088.38 874.013 1085.56 892.178 1087.16C926.632 1090.18 958.594 1115.48 985.818 1145.96C986.113 1148.05 986.159 1147.09 985.844 1148.82C959.648 1129.97 945.323 1123.59 916.313 1121.85C883.705 1119.9 838.74 1152.64 858.04 1210.86L857.443 1212.25C854.906 1211.87 854.158 1211.21 852.065 1208.97C846.412 1194.17 847.707 1163.13 856.189 1151.12C877.484 1120.95 889.082 1118.34 916.657 1118.08L907.296 1117.4C923.983 1114.21 933.195 1121.52 949.038 1121.59C947.243 1121.58 958.527 1125.39 958.754 1125.44L959.217 1124.54C960.721 1126.51 930.466 1102.98 932.725 1103.92L931.832 1106.88C917.277 1099.07 904.918 1090.36 889.191 1091.17C885.665 1091.35 879.627 1090.15 875.891 1089.68C873.385 1091.91 872.137 1093.89 869.441 1091.48L871.072 1089.07C859.827 1091.02 848.98 1092.28 838.305 1098C834.809 1099.87 830.91 1101.49 827.326 1102.96Z"/><defs><linearGradient id="gradient_6" gradientUnits="userSpaceOnUse" x1="1160.7358" y1="1167.5505" x2="946.26587" y2="1046.1017"><stop offset="0" stop-color="#8BC352"/><stop offset="1" stop-color="#30B078"/></linearGradient></defs><path fill="url(#gradient_6)" d="M947.79 1009.37C998.125 1009.52 1048.96 1038.83 1088.23 1084.82C1110.91 1111.38 1129.33 1132.7 1156.49 1148.45C1156.37 1160.5 1153.9 1158.23 1149.83 1166.34C1147.06 1171.86 1156.03 1169.59 1152.44 1184.61C1150.51 1186.15 1150.17 1185.91 1147.93 1186.23L1146.83 1188.18L1147.39 1190.09L1151.58 1191.77L1151.45 1193.76L1147.7 1198.09C1147.81 1204.15 1152.7 1201.58 1151.21 1213.56C1148.19 1215.03 1141.1 1210.86 1136.26 1210.25C1131.1 1210.23 1097.24 1185.77 1091.84 1178.95C1090.96 1177.83 1086.51 1177.85 1086.4 1177.73C1074.31 1165.06 1047.16 1134.92 1037.15 1121.57C1035.72 1117.67 1024.91 1106.07 1022.13 1102.87C996.343 1073.12 975.304 1052.03 943.724 1037.48C954.391 1037.92 946.517 1030.64 956.668 1029.99C958.841 1025.82 958.395 1028.03 958.701 1023.49C954.733 1011.26 951.431 1018.98 947.79 1009.37Z"/><path fill="#156988" d="M848.266 1499.15C909.009 1438.38 856.452 1390.85 816.718 1360.13C796.819 1344.74 774.014 1325.19 755.055 1307.37C724.884 1279 700.579 1216.31 719.673 1163.87C720.267 1170.91 719.928 1167.43 718.805 1173.96C716.957 1184.47 716.071 1217.91 718.113 1227.47C726.761 1267.97 747.443 1297.14 771.397 1317.8C782.477 1327.35 789.236 1334.57 801.451 1340.89C808.722 1344.64 820.672 1361.91 828.319 1366.35C846.342 1379.35 850.898 1372.4 866.617 1394.27L861.193 1391.16C863.687 1399.61 869.257 1403.35 871.444 1406.57C875.432 1412.46 882.62 1443.41 881.23 1452.32C881.201 1452.5 877.567 1463.7 877.076 1466.06C870.703 1476.34 858.565 1500.12 848.266 1499.15Z"/><path fill="#33A472" d="M869.759 1020.85C883.387 1013.11 933.148 1005.87 947.79 1009.37C951.431 1018.98 954.733 1011.26 958.701 1023.49C958.395 1028.03 958.841 1025.82 956.668 1029.99C946.517 1030.64 954.391 1037.92 943.724 1037.48C927.042 1032.54 911.935 1026.58 894.778 1025.98C889.023 1025.78 873.864 1025.72 869.759 1020.85Z"/><path fill="#187BAF" d="M484.794 1367.08C582.939 1331.52 679.382 1356.65 758.921 1451.84L705.242 1503.62C695.825 1512.7 684.297 1524.6 674.751 1532.44C673.762 1531.17 671.256 1528.17 670.608 1526.8C629.554 1474.54 595.145 1457.34 541.37 1471.22C510.509 1484.27 496.68 1494.75 479.499 1535.95C463.76 1612.33 507.965 1658.53 551.021 1678.85C587.479 1692.69 622.077 1693.54 657.817 1673.98C685.031 1659.09 708.319 1634.25 732.482 1610.87L810.966 1534.97C820.024 1526.15 838.938 1506.45 847.07 1500.07L848.266 1499.15C858.565 1500.12 870.703 1476.34 877.076 1466.06C877.567 1463.7 881.201 1452.5 881.23 1452.32C882.62 1443.41 875.432 1412.46 871.444 1406.57C869.257 1403.35 863.687 1399.61 861.193 1391.16L866.617 1394.27L867.828 1395.81C873.13 1402.43 884.562 1413.4 891.72 1420.05C923.934 1449.99 949.53 1517.89 926.885 1571.96C918.809 1591.25 859.157 1631.84 853.356 1649.88L853.701 1652.57C845.886 1661.54 832.296 1672.74 823.536 1680.88C791.86 1710.32 762.969 1734.55 727.944 1753.99C720.354 1758.2 683.656 1774.04 682.673 1775.02C675.403 1782.1 605.823 1785.63 593.221 1788.52C581.48 1791.21 545.545 1781.15 538.254 1785.52C534.026 1780.88 521.2 1778.98 515.46 1777.35C503.576 1773.9 491.79 1769.72 480.133 1764.82C424.25 1740.48 368.143 1694.03 353.346 1605.09C352.346 1599.08 350.372 1586.56 352.335 1581.42C351.694 1578 351.309 1574.13 350.887 1570.61L351.258 1572.11C350.893 1566.14 350.277 1558.99 350.418 1553.04C350.634 1543.94 353.774 1529.2 350.814 1520.93C350.549 1521.38 358.694 1494.01 360.039 1490.66C388.071 1420.66 434.675 1388.93 484.794 1367.08Z"/><path fill="#1D5E9A" d="M546.993 1435.61C555.281 1435.66 568.71 1439.65 576.82 1442.94C605.2 1451.94 635.628 1476.68 656.769 1505.47C661.311 1511.66 666.694 1517 670.434 1524.35L670.608 1526.8C629.554 1474.54 595.145 1457.34 541.37 1471.22C510.509 1484.27 496.68 1494.75 479.499 1535.95C463.76 1612.33 507.965 1658.53 551.021 1678.85C587.479 1692.69 622.077 1693.54 657.817 1673.98C685.031 1659.09 708.319 1634.25 732.482 1610.87L810.966 1534.97C820.024 1526.15 838.938 1506.45 847.07 1500.07L848.266 1499.15C858.565 1500.12 870.703 1476.34 877.076 1466.06L877.547 1468.31C868.415 1492.1 843.608 1509.07 828.507 1524.18C818.078 1534.61 808.055 1545.99 797.291 1555.66C793.3 1559.24 788.273 1561.6 784.244 1565.26C766.191 1584.94 747.348 1602.05 728.315 1619.41C714.329 1632.18 700.867 1646.43 686.683 1658.8C617.878 1718.84 529.9 1745.22 458.046 1680.52C451.852 1674.94 446.624 1669.8 442.174 1660.91C440.037 1657.99 437.24 1656.06 435.268 1652.88C390.131 1580.06 422.157 1469.34 482.674 1447.39C485.762 1446.27 489.353 1443.12 492.817 1442C500.179 1439.63 507.959 1439.85 515.264 1436.96C525.195 1434.06 536.559 1437.1 546.993 1435.61Z"/><path fill="#1A72AD" d="M576.82 1442.94C605.2 1451.94 635.628 1476.68 656.769 1505.47C661.311 1511.66 666.694 1517 670.434 1524.35L670.608 1526.8C629.554 1474.54 595.145 1457.34 541.37 1471.22C538.481 1470.17 537.921 1470.07 535.208 1467.88L535.499 1467L535.769 1468.12L536.337 1467.09C539.763 1467.97 542.133 1465.43 545.386 1463.11C553.176 1465.02 559.861 1460.58 568.045 1460.27C588.133 1459.51 602.802 1465.61 621.685 1473.54L621.765 1472.15C613.38 1460.59 580.313 1449.74 576.82 1442.94Z"/><path fill="#29BBD7" d="M484.794 1367.08C582.939 1331.52 679.382 1356.65 758.921 1451.84L705.242 1503.62C695.825 1512.7 684.297 1524.6 674.751 1532.44C673.762 1531.17 671.256 1528.17 670.608 1526.8L670.434 1524.35C666.694 1517 661.311 1511.66 656.769 1505.47C635.628 1476.68 605.2 1451.94 576.82 1442.94C568.71 1439.65 555.281 1435.66 546.993 1435.61C540.439 1433.4 526.244 1434.09 518.706 1433.88C528.516 1426.85 579.112 1438.95 590.992 1445.13L590.332 1446.84L591.188 1448.04C592.983 1447.61 594.177 1447.03 595.917 1448.06C621.323 1463.13 644.556 1483.49 665.193 1510.39C668.428 1514.61 671.472 1518.46 674.87 1522.35C681.09 1521.38 697.956 1502.87 704.144 1496.53C700.393 1492.85 699.814 1492.37 699.169 1485.7C697.091 1482.6 696.712 1483.63 692.841 1483.15L688.759 1473.35L682.347 1475.63C680.53 1474.15 679.62 1472 678.303 1469.57C678.591 1467.26 678.452 1468.56 678.709 1465.6C674.946 1467.54 675.625 1468.17 672.403 1466.95C670.491 1463.45 671.227 1461.34 670.364 1457.26C668.936 1460.66 669.155 1460.76 668.489 1464.69L667.092 1465.02C663.161 1458.59 661.405 1461.58 659.031 1457.74L660.081 1454.75C657.526 1449.51 654.634 1448.81 651.68 1453.28C649.49 1452.65 649.595 1452.3 647.977 1449.84L648.004 1447.93C650.04 1446.39 649.643 1446.71 651.43 1444.59C651.636 1442.17 651.775 1440.75 652.461 1438.54C649.473 1440 650.507 1439.18 648.411 1443.93C646.411 1442.33 642.14 1432.82 639.6 1428.9C637.357 1432.53 637.521 1434.22 635.197 1434.76L633.82 1432.5C637.106 1426.8 633.698 1425.83 635.988 1421.76L638.36 1425.21L640.414 1419.91C639.704 1418.29 636.745 1421.11 636.178 1420.67C634.246 1419.2 631.049 1416.76 629.196 1415.34C629.832 1412.87 629.6 1414.14 629.898 1411.56C628.246 1410.94 629.11 1411.38 627.331 1410.13L627.954 1405.26C622.937 1397.06 620.742 1406.42 617.441 1391.06L617.129 1389.65C620.773 1390.37 620.761 1391.35 623.209 1389.17C622.616 1385.95 622.997 1386.95 621.486 1384.62C620.569 1386.55 621.135 1385.53 619.705 1387.57L618.251 1386.29C619.843 1371.52 614.939 1378.34 609.95 1369.16C611.483 1366.51 611.606 1366.31 612.721 1363.25L611.74 1361.63C606.312 1359.6 599.778 1361.18 593.257 1359.77C562.526 1353.15 529.506 1360.12 499.083 1368.23C490.417 1370.55 485.796 1373.92 476.569 1376.08L476.248 1375.1C479.279 1370.95 484.362 1372.08 487.972 1368.51L484.794 1367.08Z"/><defs><linearGradient id="gradient_7" gradientUnits="userSpaceOnUse" x1="224.19733" y1="1177.2618" x2="552.28192" y2="996.31128"><stop offset="0" stop-color="#134EA5"/><stop offset="1" stop-color="#2397D1"/></linearGradient></defs><path fill="url(#gradient_7)" d="M629.021 976.022C634.695 967.722 644.028 957.925 650.311 950.414C690.202 902.729 731.721 867.633 782.818 855.548C794.878 852.696 812.128 850.521 824.395 852.955C871.303 852.965 915.641 868.765 954.881 909.254C960.072 914.61 972.626 927.851 976.033 935.048C980.601 940.361 984.651 946.404 988.836 952.368C1004.39 974.541 1020.08 995.478 1034.79 1019C1004.91 995.547 986.434 982.342 953.986 969.119C943.501 964.367 934.247 962.785 923.666 960.622C867.553 949.152 811.141 969.129 761.649 1009.1C748.689 1019.57 737.4 1030.02 725.388 1042.06C719.42 1048.04 690.082 1083.96 687.693 1085.44C664.987 1115.22 636.733 1143.01 607.856 1155.92C604.492 1157.43 596.212 1160.94 592.901 1161.24C570.236 1171.42 529.052 1169.57 504.521 1169.58L431 1169.6L205.838 1169.39C206.249 1158.31 206.819 1149.06 207.703 1138.04C207.907 1134.4 208.159 1130.76 208.458 1127.13C212.047 1084 232.256 1043.91 254.645 1017.64C307.376 955.756 398.015 942.296 458.799 982.941C483.138 999.216 498.411 1028.23 530.107 1033.06C572.753 1039.57 597.747 1012.65 629.021 976.022Z"/><path fill="#29BBD7" d="M824.395 852.955C871.303 852.965 915.641 868.765 954.881 909.254C960.072 914.61 972.626 927.851 976.033 935.048C980.601 940.361 984.651 946.404 988.836 952.368C1004.39 974.541 1020.08 995.478 1034.79 1019C1004.91 995.547 986.434 982.342 953.986 969.119C943.501 964.367 934.247 962.785 923.666 960.622C867.553 949.152 811.141 969.129 761.649 1009.1C748.689 1019.57 737.4 1030.02 725.388 1042.06C719.42 1048.04 690.082 1083.96 687.693 1085.44C686.835 1085.1 683.199 1084.21 682.852 1084.52C673.512 1092.75 663.928 1104.62 655.757 1114.36C650.733 1120.35 640.392 1127.51 634.758 1132.37C631.747 1134.97 626.753 1137.08 623.533 1139.87L618.792 1143.89C616.143 1141.77 618.284 1139.15 617.598 1137.49C615.548 1132.52 613.781 1136.81 610.951 1130.76C612.992 1127.7 613.762 1129.26 615.805 1125.61C615.156 1119.19 614.039 1125.22 611.358 1120.43C613.912 1117.89 614 1118.82 617.712 1118.78L618.129 1117.37C616.648 1113.96 616.545 1112.94 614.111 1111.24C610.846 1112.67 610.916 1114.74 607.806 1119.19C605.591 1117.62 606.531 1118.8 605.428 1114.69C606.764 1109.85 609.62 1108.29 612.964 1103.98L615.454 1106.19C611.544 1100.69 609.026 1095.58 605.727 1089.28C603.367 1087.99 603.643 1088.79 600.567 1090.58L600.801 1088.3C604.438 1083.47 611.251 1080.06 615.372 1076.83C622.141 1071.52 673.405 1028.65 674.61 1022.43L672.538 1021.31C667.173 1026.07 609.668 1078.26 609.978 1077.04C600.079 1080.1 577.177 1101.38 567.631 1094.41C566.301 1090.26 566.695 1092.55 567.329 1087.02C565.887 1085.11 566.14 1085.49 564.989 1083.29C567.027 1080.12 567.61 1079.61 568.447 1075.3C567.602 1073.59 567.123 1072.56 566.397 1070.73C568.775 1068.39 591.564 1058.91 597.089 1055.69C611.719 1047.15 658.817 995.299 666.239 978.105C664.308 976.14 663.028 976.99 660.141 977.05C693.509 929.341 736.902 884.546 781.477 865.589C795.611 859.578 809.984 856.948 824.395 852.955Z"/><path fill="#21A3BF" d="M672.538 1021.31C675.863 1017.16 689.312 1006.48 693.891 1002.33C724.149 974.368 754.42 953.471 788.612 939.044C856.556 910.375 926.865 928.415 990.188 971.548C999.531 977.912 1006.16 988.522 1014.4 994.833C1009.96 984.161 980.676 954.119 976.033 935.048C980.601 940.361 984.651 946.404 988.836 952.368C1004.39 974.541 1020.08 995.478 1034.79 1019C1004.91 995.547 986.434 982.342 953.986 969.119C943.501 964.367 934.247 962.785 923.666 960.622C867.553 949.152 811.141 969.129 761.649 1009.1C748.689 1019.57 737.4 1030.02 725.388 1042.06C719.42 1048.04 690.082 1083.96 687.693 1085.44C686.835 1085.1 683.199 1084.21 682.852 1084.52C673.512 1092.75 663.928 1104.62 655.757 1114.36C650.733 1120.35 640.392 1127.51 634.758 1132.37C631.747 1134.97 626.753 1137.08 623.533 1139.87L618.792 1143.89C616.143 1141.77 618.284 1139.15 617.598 1137.49C615.548 1132.52 613.781 1136.81 610.951 1130.76C612.992 1127.7 613.762 1129.26 615.805 1125.61C615.156 1119.19 614.039 1125.22 611.358 1120.43C613.912 1117.89 614 1118.82 617.712 1118.78L618.129 1117.37C616.648 1113.96 616.545 1112.94 614.111 1111.24C610.846 1112.67 610.916 1114.74 607.806 1119.19C605.591 1117.62 606.531 1118.8 605.428 1114.69C606.764 1109.85 609.62 1108.29 612.964 1103.98L615.454 1106.19C611.544 1100.69 609.026 1095.58 605.727 1089.28C603.367 1087.99 603.643 1088.79 600.567 1090.58L600.801 1088.3C604.438 1083.47 611.251 1080.06 615.372 1076.83C622.141 1071.52 673.405 1028.65 674.61 1022.43L672.538 1021.31Z"/><path fill="#4EB2B4" d="M976.033 935.048C980.601 940.361 984.651 946.404 988.836 952.368C1004.39 974.541 1020.08 995.478 1034.79 1019C1004.91 995.547 986.434 982.342 953.986 969.119C967.297 962.839 1004.1 990.756 1016.81 1000.45L1017.15 998.797L1014.4 994.833C1009.96 984.161 980.676 954.119 976.033 935.048Z"/><defs><linearGradient id="gradient_8" gradientUnits="userSpaceOnUse" x1="336.26477" y1="1303.1293" x2="501.30441" y2="972.02686"><stop offset="0" stop-color="#0C418C"/><stop offset="1" stop-color="#2184B7"/></linearGradient></defs><path fill="url(#gradient_8)" d="M672.538 1021.31L674.61 1022.43C673.405 1028.65 622.141 1071.52 615.372 1076.83C611.251 1080.06 604.438 1083.47 600.801 1088.3L600.567 1090.58C603.643 1088.79 603.367 1087.99 605.727 1089.28C609.026 1095.58 611.544 1100.69 615.454 1106.19L612.964 1103.98C609.62 1108.29 606.764 1109.85 605.428 1114.69C606.531 1118.8 605.591 1117.62 607.806 1119.19C610.916 1114.74 610.846 1112.67 614.111 1111.24C616.545 1112.94 616.648 1113.96 618.129 1117.37L617.712 1118.78C614 1118.82 613.912 1117.89 611.358 1120.43C614.039 1125.22 615.156 1119.19 615.805 1125.61C613.762 1129.26 612.992 1127.7 610.951 1130.76C613.781 1136.81 615.548 1132.52 617.598 1137.49C618.284 1139.15 616.143 1141.77 618.792 1143.89L623.533 1139.87C626.753 1137.08 631.747 1134.97 634.758 1132.37C640.392 1127.51 650.733 1120.35 655.757 1114.36C663.928 1104.62 673.512 1092.75 682.852 1084.52C683.199 1084.21 686.835 1085.1 687.693 1085.44C664.987 1115.22 636.733 1143.01 607.856 1155.92C604.492 1157.43 596.212 1160.94 592.901 1161.24C570.236 1171.42 529.052 1169.57 504.521 1169.58L431 1169.6L205.838 1169.39C206.249 1158.31 206.819 1149.06 207.703 1138.04C210.701 1127.54 213.585 1116.77 217.326 1106.85C218.117 1128.15 213.609 1129.25 212.61 1146.41C216.602 1137.04 220.985 1131.91 226.656 1125.32C244.734 1104.32 257.525 1098.56 278.86 1090.52C336.721 1068.73 387.224 1102.01 443.419 1114.24C489.467 1124.27 535.403 1119.1 579.602 1096.74C587.567 1092.72 603.431 1084.56 609.978 1077.04C609.668 1078.26 667.173 1026.07 672.538 1021.31Z"/><path fill="#1D5E9A" d="M207.703 1138.04C210.701 1127.54 213.585 1116.77 217.326 1106.85C218.117 1128.15 213.609 1129.25 212.61 1146.41C212.061 1152.95 210.854 1154.69 210.916 1161.74L211.966 1164.19C241.212 1166.53 272.854 1166.45 302.133 1166.5L454.714 1164.87C490.321 1164.51 526.519 1168.48 562.207 1166.29C569.289 1165.85 587.157 1158.92 592.901 1161.24C570.236 1171.42 529.052 1169.57 504.521 1169.58L431 1169.6L205.838 1169.39C206.249 1158.31 206.819 1149.06 207.703 1138.04Z"/><path fill="#187BAF" d="M603.335 1104.76L604.293 1106.57C603.564 1110.38 604.115 1108.57 601.345 1111.57C600.958 1110.03 600.84 1109.01 600.587 1107.42L603.335 1104.76Z"/><path fill="#F19031" d="M629.021 976.022C634.695 967.722 644.028 957.925 650.311 950.414C690.202 902.729 731.721 867.633 782.818 855.548C794.878 852.696 812.128 850.521 824.395 852.955C809.984 856.948 795.611 859.578 781.477 865.589C736.902 884.546 693.509 929.341 660.141 977.05C650.905 989.196 625.04 1023.2 615.143 1030.39C606.241 1043.49 576.471 1060.95 563.732 1063.66C555.206 1065.82 549.446 1066.85 540.834 1067.89C507.763 1068.07 485.137 1060.75 454.578 1040.22C441.432 1031.39 425.284 1020.73 411.642 1014.64C355.291 989.485 275.488 1009.76 233.359 1074.64C228.65 1081.89 219.737 1097.72 217.326 1106.85C213.585 1116.77 210.701 1127.54 207.703 1138.04C207.907 1134.4 208.159 1130.76 208.458 1127.13C212.047 1084 232.256 1043.91 254.645 1017.64C307.376 955.756 398.015 942.296 458.799 982.941C483.138 999.216 498.411 1028.23 530.107 1033.06C572.753 1039.57 597.747 1012.65 629.021 976.022Z"/><path fill="#F4A932" d="M629.021 976.022C634.695 967.722 644.028 957.925 650.311 950.414C690.202 902.729 731.721 867.633 782.818 855.548C794.878 852.696 812.128 850.521 824.395 852.955C809.984 856.948 795.611 859.578 781.477 865.589C736.902 884.546 693.509 929.341 660.141 977.05C650.905 989.196 625.04 1023.2 615.143 1030.39C615.334 1015.5 634.786 999.984 641.256 991.273C667.194 956.35 693.446 920.869 723.702 894.458C730.894 888.058 738.35 882.349 746.024 877.366C749.776 874.989 760.395 870.518 762.141 868.58C744.828 869.281 705.502 904.121 689.441 916.705C675.093 927.947 643.499 975.625 629.021 976.022Z"/><path fill="#187BAF" d="M540.834 1067.89C549.446 1066.85 555.206 1065.82 563.732 1063.66C562.742 1069.46 562.359 1069.73 559.61 1074.37C552.991 1078.03 548.926 1068.46 540.834 1067.89Z"/><path fill="#187BAF" d="M557.951 1078.54C559.508 1081.74 559.254 1082.35 559.333 1086.32L557.863 1086.08L557.951 1078.54Z"/><path fill="#F4A932" d="M615.008 600.266C620.553 599.983 629.323 601.042 632.376 609.59C644.711 644.125 656.007 679.825 669.182 713.728C700.828 713.417 721.66 716.753 752.741 727.131C774.053 694.307 798.487 663.798 820.38 631.658C830.584 616.679 852.34 632.22 844.653 647.215C827.501 680.676 811.258 716.285 793.858 749.324C806.01 759.93 825.159 774.983 833.596 790.683L833.213 792.114C826.236 793.625 816.724 792.867 809.385 792.894C739.195 793.154 677.127 828.526 621.482 891.517C605.582 909.572 589.789 927.84 574.104 946.316C565.364 956.768 556.408 968.17 547.36 978.071C544.993 980.66 545.042 979.985 542.484 979.597C511.172 954.092 501.587 963.477 499.624 901.834C466.241 900.334 432.863 898.564 399.492 896.525C382.965 895.646 365.874 895.875 349.422 893.088C345.921 892.511 343.055 890.687 340.236 887.696C336.429 883.655 336.565 873.987 339.544 869.134C341.933 865.241 346.762 863.03 350.169 862.419C369.007 859.041 388.153 857.591 407.098 855.747L509.464 845.162C517.869 825.041 524.271 812.174 534.212 793.79C523.251 781.244 462.095 726.738 458.607 713.918C457.656 710.422 457.733 706.996 458.843 703.63C460.202 699.509 463.517 695.972 466.349 694.513C470.398 692.427 474.986 693.075 479.009 694.95C488.643 699.44 498.265 707.951 507.432 714.45C527.354 728.573 547.214 743.048 567.32 756.566C584.816 743.92 602.736 732.393 621.499 724.648C618.851 708.17 601.49 619.162 605.14 609.376C607.13 604.038 611.278 601.69 615.008 600.266Z"/><defs><linearGradient id="gradient_9" gradientUnits="userSpaceOnUse" x1="1144.2262" y1="1006.6661" x2="1214.1288" y2="809.57758"><stop offset="0" stop-color="#1D99B2"/><stop offset="1" stop-color="#2BC9BA"/></linearGradient></defs><path fill="url(#gradient_9)" d="M1167.4 805.308C1169.13 804.672 1168.42 804.806 1170.03 804.66C1200.56 801.894 1237.66 813.41 1261.01 844.528C1272.34 859.828 1281.84 881.223 1282.3 904.767C1283.69 974.918 1230.74 1009.53 1191.46 1012.63C1155.16 1015.72 1112.82 1001.95 1088.86 957.564C1072.18 926.676 1073.27 887.137 1090.36 857.19C1109.76 823.204 1138.41 808.828 1167.4 805.308Z"/><defs><linearGradient id="gradient_10" gradientUnits="userSpaceOnUse" x1="255.79106" y1="1402.0322" x2="319.5036" y2="1207.5089"><stop offset="0" stop-color="#1972B3"/><stop offset="1" stop-color="#30C9E2"/></linearGradient></defs><path fill="url(#gradient_10)" d="M220.252 1330.26C232.29 1303.84 354.905 1239.25 380.932 1226.83C355.811 1263.6 331.579 1297.18 312.321 1342.01C296.72 1378.32 275.296 1407.84 244.232 1396.94C221.867 1392.64 200.307 1358.72 220.252 1330.26Z"/><path fill="#1A72AD" d="M220.252 1330.26C221.461 1337.05 217.898 1344.1 220.002 1349.49C226.97 1367.33 231.922 1361.88 229.839 1383.38C237.733 1387.47 249.632 1382.05 253.345 1392.56L253.186 1393.99C250.276 1394.52 246.488 1394.6 244.232 1396.94C221.867 1392.64 200.307 1358.72 220.252 1330.26Z"/><defs><linearGradient id="gradient_11" gradientUnits="userSpaceOnUse" x1="434.91272" y1="1358.0009" x2="521.45697" y2="1212.3702"><stop offset="0" stop-color="#1B7BB8"/><stop offset="1" stop-color="#2AC3E0"/></linearGradient></defs><path fill="url(#gradient_11)" d="M401.065 1293.35C407.047 1283.45 414.009 1276.51 421.068 1268.43C451.174 1233.97 491.741 1205.11 530.041 1223.4C537.485 1226.82 543.392 1232.86 548.998 1240.51C554.002 1247.34 556.855 1255.01 556.618 1265.12C555.518 1311.91 512.387 1321.44 490.178 1304.11C471.723 1289.71 451.012 1306.47 434.306 1317.61C425.806 1313.5 410.84 1331.63 402.822 1312.94C401.295 1312.03 400.726 1311.61 399.291 1310.4C398.559 1307.08 400.847 1298.8 401.065 1293.35Z"/><path fill="#1A72AD" d="M351.296 1393.15C358.803 1361.62 383.564 1314.26 401.065 1293.35C400.847 1298.8 398.559 1307.08 399.291 1310.4C400.726 1311.61 401.295 1312.03 402.822 1312.94C410.84 1331.63 425.806 1313.5 434.306 1317.61C405.268 1342.88 379.73 1367.11 351.296 1393.15Z"/></svg>