<?xml version="1.0" encoding="utf-8" ?><svg xmlns="http://www.w3.org/2000/svg" xmlns:xlink="http://www.w3.org/1999/xlink" width="1684" height="2528" viewBox="0 0 1684 2528"><path fill="#156888" d="M754.483 1762.58C769.442 1757.64 784.46 1754.71 799.713 1749.49C929.867 1704.89 1065.66 1615.99 1142.92 1444.78C1152.2 1424.21 1154.42 1393.65 1169.57 1378.18C1187.88 1359.02 1211.78 1357.1 1232.99 1361.32C1247.77 1367.37 1260.23 1375.02 1268.54 1395.89C1279.12 1422.47 1267.61 1449.57 1259.04 1473.18C1233.72 1542.91 1193.61 1595.98 1153.49 1646.11C1141.76 1660.83 1124.23 1674.99 1114.53 1687.41C1121.61 1684.95 1136.56 1673.8 1143.64 1668.5C1191.35 1632.76 1236.01 1588.51 1276.67 1536.72C1302.97 1505.61 1314.9 1482.58 1335.79 1446.34C1340.2 1435.45 1345.58 1425.27 1350.28 1414.68C1353.5 1407.42 1356.49 1399.2 1359.9 1392.36C1387.61 1336.65 1487.28 1350.43 1469.47 1442.62C1468.84 1445.87 1467.1 1455.71 1465.8 1457.66C1461.95 1477.03 1452.2 1501.04 1444.83 1518.28C1412.18 1594.74 1372.96 1650.6 1326.03 1706.45C1247.75 1791.5 1152.41 1852.21 1058.36 1884.72C1027.88 1895.64 997.049 1904.13 965.979 1910.18C834.17 1936.47 682.974 1917.42 557.814 1850.34C549.736 1846.01 506.011 1821.66 500.605 1815.45L501.706 1812.74C496.569 1806.78 485.487 1798.74 479.474 1793.32C462.545 1778.05 436.497 1756.76 422.038 1737.28C445.818 1749.99 456.264 1762.71 482.654 1772.54C522.024 1787.21 557.978 1798.1 598.955 1794.45C604.031 1793.99 614.215 1793.62 618.335 1789.96C629.857 1788.29 643.36 1786.15 654.691 1783.31C657.908 1779.73 678.236 1779.75 682.968 1773.93C683.248 1773.59 686.911 1773.85 687.657 1773.92C695.187 1775.64 743.078 1763.77 754.483 1762.58Z"/><defs><linearGradient id="gradient_0" gradientUnits="userSpaceOnUse" x1="992.96698" y1="1806.4658" x2="1011.3869" y2="1344.3582"><stop offset="0" stop-color="#1C80A4"/><stop offset="1" stop-color="#2FCECB"/></linearGradient></defs><path fill="url(#gradient_0)" d="M754.483 1762.58C769.442 1757.64 784.46 1754.71 799.713 1749.49C929.867 1704.89 1065.66 1615.99 1142.92 1444.78C1152.2 1424.21 1154.42 1393.65 1169.57 1378.18C1187.88 1359.02 1211.78 1357.1 1232.99 1361.32C1247.77 1367.37 1260.23 1375.02 1268.54 1395.89C1279.12 1422.47 1267.61 1449.57 1259.04 1473.18C1233.72 1542.91 1193.61 1595.98 1153.49 1646.11C1141.76 1660.83 1124.23 1674.99 1114.53 1687.41C1111.71 1690.19 1110.39 1691.45 1107.91 1694.81C1085.95 1708.96 1065.11 1722.73 1042.68 1735.25C1005.89 1755.39 968.325 1772.2 930.194 1785.61C929.813 1783.19 930.105 1783.81 929.246 1782.12C928.392 1780.45 926.567 1780.66 925.211 1780.36C918.63 1768.36 910.691 1779.53 906.452 1775.83L905.764 1771.15C900.655 1768.83 900.108 1768.38 896.473 1762.53C884.095 1764.54 873.343 1769.52 861.52 1771.59C846.995 1770.56 827.998 1779.29 813.223 1781.02C796.365 1782.98 779.255 1783.83 762.36 1785.3C756.624 1785.8 749.752 1783.62 744.824 1785.52C742.036 1786.6 743.705 1786.79 740.039 1786.48C737.626 1784.25 738.409 1785.21 737.481 1779.71L736.341 1779.04L734.091 1781.39L732.677 1780.83L731.897 1778.5C736.738 1771.02 756.65 1770.02 760.686 1763.71C758.328 1761.67 757.685 1762.5 754.483 1762.58Z"/><defs><linearGradient id="gradient_1" gradientUnits="userSpaceOnUse" x1="1319.1705" y1="1464.8854" x2="1252.0238" y2="1759.8502"><stop offset="0" stop-color="#93C853"/><stop offset="1" stop-color="#46B46B"/></linearGradient></defs><path fill="url(#gradient_1)" d="M1335.79 1446.34C1340.2 1435.45 1345.58 1425.27 1350.28 1414.68C1353.5 1407.42 1356.49 1399.2 1359.9 1392.36C1387.61 1336.65 1487.28 1350.43 1469.47 1442.62C1468.84 1445.87 1467.1 1455.71 1465.8 1457.66C1461.95 1477.03 1452.2 1501.04 1444.83 1518.28C1412.18 1594.74 1372.96 1650.6 1326.03 1706.45C1319.21 1703.28 1322.66 1699.93 1318.94 1698.9C1311.07 1696.72 1312.35 1703.16 1305.65 1692.69C1300.38 1693.88 1286.21 1704.61 1275.08 1707.36C1264.74 1711.46 1243.95 1730.15 1231.64 1737.06C1229.46 1735.65 1220.87 1737.83 1216.04 1737.52L1214.68 1738.91L1214.01 1740.6C1208.07 1735.91 1197.94 1740.23 1195.79 1726.72C1196.92 1723.06 1197.19 1722.4 1197.85 1718.37C1196.12 1707.63 1189.95 1708.06 1184.46 1707.98C1178.62 1707.89 1176.3 1687.46 1170.46 1687C1168.93 1688.89 1168.32 1689.75 1166.61 1691.22C1164.43 1686.31 1167.37 1680.89 1164.98 1675.87C1162.78 1674.32 1161.99 1674.12 1160.42 1671.37C1161.47 1668.67 1161.23 1669.53 1161.84 1666.47L1159.84 1666.21C1154.76 1671.56 1149.98 1671.85 1144.33 1675.45C1132.29 1683.11 1121.56 1696.19 1107.91 1694.81C1110.39 1691.45 1111.71 1690.19 1114.53 1687.41C1121.61 1684.95 1136.56 1673.8 1143.64 1668.5C1191.35 1632.76 1236.01 1588.51 1276.67 1536.72C1302.97 1505.61 1314.9 1482.58 1335.79 1446.34Z"/><path fill="#A8C94D" d="M1335.79 1446.34C1340.2 1435.45 1345.58 1425.27 1350.28 1414.68C1353.5 1407.42 1356.49 1399.2 1359.9 1392.36C1387.61 1336.65 1487.28 1350.43 1469.47 1442.62C1468.84 1445.87 1467.1 1455.71 1465.8 1457.66C1459.39 1460.83 1450.58 1487.28 1444.5 1497.51C1439.19 1502.32 1431.8 1524 1426.99 1521.61C1400.36 1508.36 1373.81 1494.4 1347.27 1480.68C1343.48 1478.72 1332.2 1471.63 1328.93 1471.13L1328.13 1471.74C1330.57 1461.62 1336.22 1458.62 1335.79 1446.34Z"/><defs><linearGradient id="gradient_2" gradientUnits="userSpaceOnUse" x1="1378.2823" y1="1466.2651" x2="1358.3149" y2="1715.9712"><stop offset="0" stop-color="#84BF47"/><stop offset="1" stop-color="#36A968"/></linearGradient></defs><path fill="url(#gradient_2)" d="M1444.5 1497.51C1450.58 1487.28 1459.39 1460.83 1465.8 1457.66C1461.95 1477.03 1452.2 1501.04 1444.83 1518.28C1412.18 1594.74 1372.96 1650.6 1326.03 1706.45C1319.21 1703.28 1322.66 1699.93 1318.94 1698.9C1311.07 1696.72 1312.35 1703.16 1305.65 1692.69C1300.38 1693.88 1286.21 1704.61 1275.08 1707.36C1279.18 1702.57 1287.95 1695.71 1292.7 1691.7C1301.88 1684.08 1310.92 1676.08 1319.8 1667.72C1359.43 1630.61 1395.26 1585.05 1426.15 1532.45C1431.2 1523.85 1440.89 1507.12 1444.5 1497.51Z"/><path fill="#32A372" d="M1107.91 1694.81C1121.56 1696.19 1132.29 1683.11 1144.33 1675.45C1149.98 1671.85 1154.76 1671.56 1159.84 1666.21L1161.84 1666.47C1161.23 1669.53 1161.47 1668.67 1160.42 1671.37C1161.99 1674.12 1162.78 1674.32 1164.98 1675.87C1167.37 1680.89 1164.43 1686.31 1166.61 1691.22C1168.32 1689.75 1168.93 1688.89 1170.46 1687C1176.3 1687.46 1178.62 1707.89 1184.46 1707.98C1189.95 1708.06 1196.12 1707.63 1197.85 1718.37C1197.19 1722.4 1196.92 1723.06 1195.79 1726.72C1197.94 1740.23 1208.07 1735.91 1214.01 1740.6C1213.26 1744.9 1213.7 1745.31 1210.77 1747.79C1203.12 1754.25 1186.04 1758.22 1179.53 1764.56L1179.84 1766.93C1176.55 1771.82 1148.83 1781.89 1141.96 1786.58C1126.31 1792.5 1110.04 1799.56 1094.4 1804.87C1048.8 1820.99 1002.28 1830.62 955.466 1833.63C951.162 1833.95 939.522 1837.12 936.639 1834.77C934.03 1829.03 930.584 1830.41 928.935 1824.24C931.017 1822.76 930.447 1823.86 931.443 1821.44C924.48 1817.19 927.65 1812.58 925.049 1804.64C922.595 1797.15 917.699 1806.88 913.431 1806.16L912.979 1804.18C914.409 1801.64 915.531 1800.52 917.261 1798.53C918.069 1794.43 918.16 1796.42 916.759 1792.39C917.557 1790.42 928.066 1786.51 930.194 1785.61C968.325 1772.2 1005.89 1755.39 1042.68 1735.25C1065.11 1722.73 1085.95 1708.96 1107.91 1694.81Z"/><defs><linearGradient id="gradient_3" gradientUnits="userSpaceOnUse" x1="1243.1035" y1="1676.6957" x2="1225.2455" y2="1826.1882"><stop offset="0" stop-color="#31A66A"/><stop offset="1" stop-color="#1B9478"/></linearGradient></defs><path fill="url(#gradient_3)" d="M1275.08 1707.36C1286.21 1704.61 1300.38 1693.88 1305.65 1692.69C1312.35 1703.16 1311.07 1696.72 1318.94 1698.9C1322.66 1699.93 1319.21 1703.28 1326.03 1706.45C1247.75 1791.5 1152.41 1852.21 1058.36 1884.72C1054.28 1884.09 1048.64 1884.42 1044.43 1884.47C1084.09 1867.83 1123 1854.7 1161.62 1831.69C1170.77 1826.23 1177.98 1822.93 1187.04 1815.91C1176.8 1813.29 1169.06 1806.8 1161.28 1796.68C1157.72 1792.05 1155.95 1788.9 1151.63 1786.1C1149.13 1785.82 1144.54 1786.35 1141.96 1786.58C1148.83 1781.89 1176.55 1771.82 1179.84 1766.93L1179.53 1764.56C1186.04 1758.22 1203.12 1754.25 1210.77 1747.79C1213.7 1745.31 1213.26 1744.9 1214.01 1740.6L1214.68 1738.91L1216.04 1737.52C1220.87 1737.83 1229.46 1735.65 1231.64 1737.06C1243.95 1730.15 1264.74 1711.46 1275.08 1707.36Z"/><path fill="#74B257" d="M1214.68 1738.91L1216.04 1737.52C1220.87 1737.83 1229.46 1735.65 1231.64 1737.06C1226.59 1740.41 1220.39 1744.81 1215.3 1747.49C1206.62 1754.42 1189.29 1763.5 1179.84 1766.93L1179.53 1764.56C1186.04 1758.22 1203.12 1754.25 1210.77 1747.79C1213.7 1745.31 1213.26 1744.9 1214.01 1740.6L1214.68 1738.91Z"/><path fill="#187BAF" d="M687.657 1773.92C695.187 1775.64 743.078 1763.77 754.483 1762.58C757.685 1762.5 758.328 1761.67 760.686 1763.71C756.65 1770.02 736.738 1771.02 731.897 1778.5L732.677 1780.83L734.091 1781.39L736.341 1779.04L737.481 1779.71C738.409 1785.21 737.626 1784.25 740.039 1786.48C743.705 1786.79 742.036 1786.6 744.824 1785.52C749.752 1783.62 756.624 1785.8 762.36 1785.3C779.255 1783.83 796.365 1782.98 813.223 1781.02C827.998 1779.29 846.995 1770.56 861.52 1771.59C816.353 1788.89 753.898 1792.45 707.4 1788.86C695.81 1787.96 683.478 1785.1 671.786 1783.32C665.701 1782.39 658.935 1783.94 654.691 1783.31C657.908 1779.73 678.236 1779.75 682.968 1773.93C683.248 1773.59 686.911 1773.85 687.657 1773.92Z"/><path fill="#208475" d="M1141.96 1786.58C1144.54 1786.35 1149.13 1785.82 1151.63 1786.1C1141.44 1788.9 1138.83 1790.72 1129.76 1798.43C1117.59 1796.58 1074.91 1814.58 1059.68 1819.18C1005.26 1835.61 951.002 1841.5 895.576 1841.26C885.297 1841.22 872.313 1842.87 862.338 1839.47C866.446 1837.27 875.03 1838.2 879.663 1837.96C896.76 1837.09 920.422 1841.15 936.639 1834.77C939.522 1837.12 951.162 1833.95 955.466 1833.63C1002.28 1830.62 1048.8 1820.99 1094.4 1804.87C1110.04 1799.56 1126.31 1792.5 1141.96 1786.58Z"/><path fill="#187BAF" d="M916.759 1792.39C902.63 1794.4 863.87 1808.89 850.503 1806.66C853.255 1803.21 916.991 1788.12 927.028 1783.63C925.121 1781.79 917.68 1783.4 915.172 1783.95L914.205 1785.17L912.906 1784.84L914.869 1783.27L914.787 1784.2C918.691 1782.47 921.217 1781.44 925.211 1780.36C926.567 1780.66 928.392 1780.45 929.246 1782.12C930.105 1783.81 929.813 1783.19 930.194 1785.61C928.066 1786.51 917.557 1790.42 916.759 1792.39Z"/><path fill="#187BAF" d="M489.522 1365.85C590.5 1331.81 676.316 1357.69 759.052 1451.25L705.204 1503.58C697.178 1511.42 682.265 1527.14 674.018 1532.37L665.429 1519.86C664.349 1518.57 663.036 1516.75 661.968 1515.35C654.431 1508.11 648.723 1500.74 640.222 1493.6C609.147 1467.47 580.95 1461.45 546.194 1468.8C534.545 1473.49 523.926 1477.67 513.232 1486.15C487.947 1506.2 470.091 1543.4 478.475 1587.58C484.88 1621.33 501.562 1643.37 521.514 1660.01C558.466 1690.44 605.996 1697.36 646.329 1678.92C668.076 1668.98 682.341 1657.58 701.62 1640.99C703.68 1638.15 712.943 1629.94 715.891 1627.08C737.318 1606.34 758.601 1584.38 780.424 1564.62C802.008 1539.62 857.308 1497.51 870.287 1467.53C874.712 1457.31 876.642 1445.66 874.69 1433.67C869.709 1403.04 846.227 1385.13 829.624 1370.64C835.415 1370.14 862.348 1381.58 862.802 1390.92L861.795 1392.53L861.853 1393.67C864.277 1392.92 865.58 1392.91 867.8 1395.42C880.76 1410.06 892.837 1419.5 905.448 1435.43C933.738 1471.16 951.907 1549.43 915.948 1587.57C911.72 1592.06 909.174 1591.84 908.582 1600.59C860.788 1646.83 809.004 1698.16 758.108 1734.62C745.678 1743.51 732.866 1751.15 719.758 1757.48C713.656 1760.49 691.912 1770.06 687.657 1773.92C686.911 1773.85 683.248 1773.59 682.968 1773.93C678.236 1779.75 657.908 1779.73 654.691 1783.31C643.36 1786.15 629.857 1788.29 618.335 1789.96C614.215 1793.62 604.031 1793.99 598.955 1794.45C557.978 1798.1 522.024 1787.21 482.654 1772.54C456.264 1762.71 445.818 1749.99 422.038 1737.28C436.497 1756.76 462.545 1778.05 479.474 1793.32C485.487 1798.74 496.569 1806.78 501.706 1812.74L500.605 1815.45C485.938 1808.15 463.246 1787.27 449.854 1774.62C412.525 1739.37 371.708 1695.05 354.223 1632.08C344.668 1597.67 342.232 1552.69 352.023 1517.76C352.596 1511.08 355.418 1503.83 357.468 1497.83C382.692 1424.06 438.091 1383.54 489.522 1365.85Z"/><path fill="#1C5E9A" d="M541.679 1435.24C552.63 1436.16 567.567 1437.96 577.905 1443.99C598.155 1448.62 652.983 1488.21 661.968 1515.35C654.431 1508.11 648.723 1500.74 640.222 1493.6C609.147 1467.47 580.95 1461.45 546.194 1468.8C534.545 1473.49 523.926 1477.67 513.232 1486.15C487.947 1506.2 470.091 1543.4 478.475 1587.58C484.88 1621.33 501.562 1643.37 521.514 1660.01C558.466 1690.44 605.996 1697.36 646.329 1678.92C668.076 1668.98 682.341 1657.58 701.62 1640.99C701.429 1641.8 700.61 1645.03 700.236 1645.41C633.181 1712.42 544.523 1745.85 468.855 1689.47C416.501 1650.45 395.623 1572.15 431.773 1497.26C452.298 1454.74 487.231 1441.51 520.21 1435.98C527.151 1434.81 534.714 1436.98 541.679 1435.24Z"/><path fill="#187BAF" d="M577.905 1443.99C598.155 1448.62 652.983 1488.21 661.968 1515.35C654.431 1508.11 648.723 1500.74 640.222 1493.6C609.147 1467.47 580.95 1461.45 546.194 1468.8C543.206 1468.29 540.575 1468.85 537.571 1468.23C564.644 1452.07 597.317 1463.96 624.078 1474.09C607.863 1457.12 590.878 1456.06 577.905 1443.99Z"/><path fill="#28BAD6" d="M489.522 1365.85C590.5 1331.81 676.316 1357.69 759.052 1451.25L705.204 1503.58C697.178 1511.42 682.265 1527.14 674.018 1532.37L665.429 1519.86C666.789 1515.19 665.692 1516.71 668.683 1514.89L675.312 1522.72C680.915 1519.32 701.116 1502.77 703.023 1495.79C698.811 1489.49 694.828 1481.75 690.124 1475.95C687.859 1473.15 685.574 1474.77 682.388 1475.54C679.527 1473.81 679.754 1472.1 677.884 1466.88C676.303 1467.04 674.72 1467.16 673.136 1467.24C670.875 1464.27 671.5 1464.48 670.468 1459.35C668.451 1461.47 669.278 1460.74 667.989 1464.92C661.528 1463.82 661.589 1453.06 655.178 1450.61C652.952 1451.99 652.705 1452.27 650.362 1452.82L648.535 1450.73L648.368 1448.4C649.77 1446.39 650.867 1444.72 652.184 1442.58L651.934 1440.4L650.819 1439.46L648.462 1442.59C645.519 1442.27 643.696 1434.58 641.008 1431.23C637.79 1427.21 639.316 1433.85 635.306 1434.34C633.613 1431.26 634.125 1433 633.844 1428.87C635.447 1424.02 637.818 1425.19 639.576 1420.44C624.024 1420.51 634.112 1405.68 622.046 1400.79C619.567 1399.79 617.364 1394.68 618.596 1390.67L622.736 1389.14L622.895 1387.25C619.49 1382.17 622.821 1388.07 618.616 1385.93C617.174 1367.47 613.273 1378.58 610.3 1368.91C611.515 1366.21 611.511 1366.26 612.191 1363.17C608.63 1358.49 600.286 1360.85 595.422 1359.89C561.183 1353.1 527.011 1360.39 493.347 1369.89C488.067 1371.38 483.299 1375.27 477.867 1375.06C481.831 1370.23 485.411 1372.49 489.522 1365.85Z"/><path fill="#1C5E9A" d="M500.605 1815.45C485.938 1808.15 463.246 1787.27 449.854 1774.62C412.525 1739.37 371.708 1695.05 354.223 1632.08C344.668 1597.67 342.232 1552.69 352.023 1517.76C352.3 1530.61 351.047 1544.03 350.641 1556.84C346.139 1698.95 445.115 1760.45 523.538 1779.8C531.887 1781.86 540.327 1786.51 548.779 1788.01C567.327 1790.54 588.029 1791.36 606.634 1790.73C610.538 1790.62 614.44 1790.36 618.335 1789.96C614.215 1793.62 604.031 1793.99 598.955 1794.45C557.978 1798.1 522.024 1787.21 482.654 1772.54C456.264 1762.71 445.818 1749.99 422.038 1737.28C436.497 1756.76 462.545 1778.05 479.474 1793.32C485.487 1798.74 496.569 1806.78 501.706 1812.74L500.605 1815.45Z"/><path fill="#156888" d="M829.624 1370.64C835.415 1370.14 862.348 1381.58 862.802 1390.92L861.795 1392.53L861.853 1393.67C864.101 1397.45 865.189 1399.18 867.706 1402.53C877.07 1415.01 879.354 1432.19 881.606 1449.79C880.245 1454.84 875.904 1472.3 874.082 1475.27C861.98 1495.05 844.13 1509.17 829.052 1523.39C818.027 1533.79 792.38 1564.55 780.424 1564.62C802.008 1539.62 857.308 1497.51 870.287 1467.53C874.712 1457.31 876.642 1445.66 874.69 1433.67C869.709 1403.04 846.227 1385.13 829.624 1370.64Z"/><path fill="#21A2BE" d="M541.679 1435.24C537.18 1432.56 522.597 1435.7 521.375 1433.19C527.9 1428.37 565.915 1436.41 575.357 1439.39C606.026 1449.07 646.719 1481.98 668.683 1514.89C665.692 1516.71 666.789 1515.19 665.429 1519.86C664.349 1518.57 663.036 1516.75 661.968 1515.35C652.983 1488.21 598.155 1448.62 577.905 1443.99C567.567 1437.96 552.63 1436.16 541.679 1435.24Z"/><defs><linearGradient id="gradient_4" gradientUnits="userSpaceOnUse" x1="280.82733" y1="1209.9974" x2="612.74445" y2="869.1347"><stop offset="0" stop-color="#1558AB"/><stop offset="1" stop-color="#27A8DB"/></linearGradient></defs><path fill="url(#gradient_4)" d="M633.267 970.951C633.451 970.683 633.635 970.415 633.819 970.147C690.752 898.01 748.522 848.083 824.775 852.114C873.767 853.16 924.474 871.719 963.121 918.467C980.191 939.115 995.726 963.259 1011.99 985.276L1018.98 995.004C1017.09 996.312 1014.74 1000.11 1013.59 1002.72C991.639 984.461 968.931 974.199 944.471 965.736C865.551 938.431 786.514 976.101 722.072 1045.03C711.328 1056.52 699.047 1074.21 688.38 1084.41C643.993 1140.45 604.649 1167.85 546.039 1169.16C514.975 1169.85 483.996 1169.68 452.939 1169.46L311.111 1169.06L239.099 1169.07C233.368 1169.07 208.563 1170.4 205.495 1166.71C206.418 1156.27 206.735 1144.6 207.953 1134.5C208.214 1130.66 208.569 1126.84 209.017 1123.04C227.605 973.732 376.536 925.076 457.136 981.852C492.596 1006.83 508.818 1040.01 552.33 1032.24C590.882 1025.35 603.454 1001.53 633.267 970.951Z"/><path fill="#28BAD6" d="M824.775 852.114C873.767 853.16 924.474 871.719 963.121 918.467C980.191 939.115 995.726 963.259 1011.99 985.276L1018.98 995.004C1017.09 996.312 1014.74 1000.11 1013.59 1002.72C991.639 984.461 968.931 974.199 944.471 965.736C865.551 938.431 786.514 976.101 722.072 1045.03C711.328 1056.52 699.047 1074.21 688.38 1084.41C676.966 1084.22 663.825 1106.22 654.425 1115.31C645.912 1123.55 637.654 1131.34 628.181 1137.1C622.919 1140.3 620.686 1145.04 617.367 1136.96C615.495 1135.5 613.601 1134.09 611.686 1132.76L611.393 1130.76C613.22 1128.74 613.923 1128.05 615.543 1125.6L615.113 1123.29L612.027 1120.82C614.616 1116.51 616.031 1120.89 617.524 1116.44L617.108 1113.3C613.918 1110.39 610.274 1114.59 607.76 1117.88L606.245 1117.54C607.548 1108.97 608.418 1108.92 613.416 1103.48C611.348 1099.65 607.196 1091.26 604.726 1088.84L601.56 1089.17L601.797 1087.07L600.905 1084.55C604.142 1082.06 606.373 1080.03 609.447 1077.09C601.072 1080.79 574.167 1102.85 567.395 1093.02C567.294 1088.54 567.122 1087.19 565.668 1083.35C566.734 1080.64 567.688 1078.34 567.642 1075.14C567.569 1070.1 569.092 1069.25 572.518 1067.21C578.868 1063.41 593.279 1058.43 598.873 1054.55C614.002 1044.07 657.509 998.049 665.793 979.285L665.272 977.26L661.455 975.434C664.232 970.506 675.715 955.855 679.36 951.329C710.092 912.944 743.842 882.694 782.282 865.271C794.438 859.762 814.572 858.341 824.775 852.114Z"/><path fill="#21A2BE" d="M672.679 1021.13C679.465 1014 688.651 1006.77 696.021 1000.15C728.304 971.194 760.454 949.223 797.247 935.706C862.316 911.801 930.057 930.658 990.313 971.494C993.612 973.73 1007.33 988.057 1011.53 991.925L1012 991.27L1011.99 985.276L1018.98 995.004C1017.09 996.312 1014.74 1000.11 1013.59 1002.72C991.639 984.461 968.931 974.199 944.471 965.736C865.551 938.431 786.514 976.101 722.072 1045.03C711.328 1056.52 699.047 1074.21 688.38 1084.41C676.966 1084.22 663.825 1106.22 654.425 1115.31C645.912 1123.55 637.654 1131.34 628.181 1137.1C622.919 1140.3 620.686 1145.04 617.367 1136.96C615.495 1135.5 613.601 1134.09 611.686 1132.76L611.393 1130.76C613.22 1128.74 613.923 1128.05 615.543 1125.6L615.113 1123.29L612.027 1120.82C614.616 1116.51 616.031 1120.89 617.524 1116.44L617.108 1113.3C613.918 1110.39 610.274 1114.59 607.76 1117.88L606.245 1117.54C607.548 1108.97 608.418 1108.92 613.416 1103.48C611.348 1099.65 607.196 1091.26 604.726 1088.84L601.56 1089.17L601.797 1087.07L600.905 1084.55C604.142 1082.06 606.373 1080.03 609.447 1077.09C629.668 1060.84 652.758 1039.02 672.679 1021.13Z"/><path fill="#187BAF" d="M672.679 1021.13L673.464 1023.97C667.38 1035.11 612.636 1078.96 601.797 1087.07L600.905 1084.55C604.142 1082.06 606.373 1080.03 609.447 1077.09C629.668 1060.84 652.758 1039.02 672.679 1021.13Z"/><defs><linearGradient id="gradient_5" gradientUnits="userSpaceOnUse" x1="391.64053" y1="1250.9969" x2="444.75363" y2="1010.8119"><stop offset="0" stop-color="#104E94"/><stop offset="1" stop-color="#1E79B0"/></linearGradient></defs><path fill="url(#gradient_5)" d="M238.886 1112.43C250.558 1101.66 261.943 1097.11 274.906 1091.74C338.755 1065.3 397.018 1108.45 460.579 1117.24C508.438 1124.08 556.677 1112.85 600.905 1084.55L601.797 1087.07L601.56 1089.17L604.726 1088.84C607.196 1091.26 611.348 1099.65 613.416 1103.48C608.418 1108.92 607.548 1108.97 606.245 1117.54L607.76 1117.88C610.274 1114.59 613.918 1110.39 617.108 1113.3L617.524 1116.44C616.031 1120.89 614.616 1116.51 612.027 1120.82L615.113 1123.29L615.543 1125.6C613.923 1128.05 613.22 1128.74 611.393 1130.76L611.686 1132.76C613.601 1134.09 615.495 1135.5 617.367 1136.96C620.686 1145.04 622.919 1140.3 628.181 1137.1C637.654 1131.34 645.912 1123.55 654.425 1115.31C663.825 1106.22 676.966 1084.22 688.38 1084.41C643.993 1140.45 604.649 1167.85 546.039 1169.16C514.975 1169.85 483.996 1169.68 452.939 1169.46L311.111 1169.06L239.099 1169.07C233.368 1169.07 208.563 1170.4 205.495 1166.71C206.418 1156.27 206.735 1144.6 207.953 1134.5C210.293 1129.39 214.93 1113.99 217.4 1107.06C218.984 1100.58 221.65 1095.74 224.329 1090.08C232.108 1096.65 232.478 1103.46 238.886 1112.43Z"/><path fill="#1454A8" d="M217.4 1107.06C218.984 1100.58 221.65 1095.74 224.329 1090.08C232.108 1096.65 232.478 1103.46 238.886 1112.43C228.356 1122.83 221.211 1130.54 212.675 1144.49C213.755 1129.92 217.39 1128.68 217.4 1107.06Z"/><path fill="#1C5E9A" d="M217.4 1107.06C217.39 1128.68 213.755 1129.92 212.675 1144.49C212.049 1151.15 211.143 1157.51 210.527 1164.01L228.671 1165.79C220.998 1166.6 212.775 1165.85 205.495 1166.71C206.418 1156.27 206.735 1144.6 207.953 1134.5C210.293 1129.39 214.93 1113.99 217.4 1107.06Z"/><path fill="#F19131" d="M633.267 970.951C633.451 970.683 633.635 970.415 633.819 970.147C690.752 898.01 748.522 848.083 824.775 852.114C814.572 858.341 794.438 859.762 782.282 865.271C743.842 882.694 710.092 912.944 679.36 951.329C675.715 955.855 664.232 970.506 661.455 975.434C649.645 990.855 628.731 1019.04 615.204 1030.32C602.719 1046.34 580.182 1058.38 564.289 1063.43C556.897 1065.14 549.481 1066.61 542.047 1067.84C497.532 1067.76 473.284 1054.35 433.429 1026.52C374.876 985.626 282.626 1001.66 235.75 1071.08C231.713 1077.09 227.901 1083.44 224.329 1090.08C221.65 1095.74 218.984 1100.58 217.4 1107.06C214.93 1113.99 210.293 1129.39 207.953 1134.5C208.214 1130.66 208.569 1126.84 209.017 1123.04C227.605 973.732 376.536 925.076 457.136 981.852C492.596 1006.83 508.818 1040.01 552.33 1032.24C590.882 1025.35 603.454 1001.53 633.267 970.951Z"/><path fill="#F4A932" d="M633.267 970.951C633.451 970.683 633.635 970.415 633.819 970.147C690.752 898.01 748.522 848.083 824.775 852.114C814.572 858.341 794.438 859.762 782.282 865.271C743.842 882.694 710.092 912.944 679.36 951.329C675.715 955.855 664.232 970.506 661.455 975.434C649.645 990.855 628.731 1019.04 615.204 1030.32C615.847 1023.1 618.641 1017.71 622.447 1013.36C622.634 1016.62 619.025 1019.34 617.812 1024.98C639.335 1003.06 657.227 976.596 676.785 951.185C702.295 918.042 731.926 891.628 762.989 872.103C771.557 866.717 780.945 865.292 789.31 859.933C784.444 857.499 770.466 863.603 765.287 865.617C736.242 876.912 709.314 899.204 683.679 922.095C674.264 930.503 644.208 971.947 634.467 973.478L633.267 970.951Z"/><path fill="#187BAF" d="M542.047 1067.84C549.481 1066.61 556.897 1065.14 564.289 1063.43C557.969 1083.86 553.176 1072.09 542.047 1067.84Z"/><defs><linearGradient id="gradient_6" gradientUnits="userSpaceOnUse" x1="977.1488" y1="1055.702" x2="798.40247" y2="1423.5797"><stop offset="0" stop-color="#2DAB62"/><stop offset="1" stop-color="#1174A0"/></linearGradient></defs><path fill="url(#gradient_6)" d="M873.209 1019.94C898.434 1007.14 951.698 1007.1 978.623 1013.43L977.562 1013.58C973.046 1014.14 953.136 1012.9 951.427 1014.01C954.612 1016.02 955.56 1016.33 957.72 1020.34C959.133 1029.25 951.004 1035.07 946.069 1038.56C978.826 1054.97 1011.39 1085.97 1036.69 1121.56C1036.94 1121.91 1037.29 1124.2 1037.4 1124.81C1039.65 1131.13 1042.79 1138.32 1041.96 1145.4C1038.71 1152.58 1035.23 1153.29 1033.62 1162.47C1037.43 1168.08 1036.63 1172.61 1035.8 1180.54L1034.6 1180.56C1033.08 1180.6 1031.86 1180.73 1030.35 1180.91C1023.42 1193.14 1052.44 1214.35 1056.93 1221.77C1056.83 1224.79 1057 1223.83 1056.2 1226.43C1028.53 1202.21 1011.98 1170.06 985.24 1148.6C971.464 1138.03 959.11 1130.89 943.792 1126.67C924.135 1121.26 906.589 1118.68 887.241 1127.75C867.231 1137.13 847.388 1163.58 854.699 1198.14C855.644 1202.39 857.222 1207.01 859.125 1210.53C878.28 1242.57 903.116 1252.71 927.15 1275.16C930.226 1278.04 941.321 1286.57 943.188 1289.06C991.185 1323.63 1041.67 1389.99 1013.33 1476.56C1007.61 1494.02 997.306 1515.03 986.228 1525.51C970.971 1544.75 941.314 1568.76 923.562 1585.89C918.59 1590.83 913.596 1595.73 908.582 1600.59C909.174 1591.84 911.72 1592.06 915.948 1587.57C951.907 1549.43 933.738 1471.16 905.448 1435.43C892.837 1419.5 880.76 1410.06 867.8 1395.42C865.58 1392.91 864.277 1392.92 861.853 1393.67L861.795 1392.53L862.802 1390.92C862.348 1381.58 835.415 1370.14 829.624 1370.64C804.124 1348.32 776.098 1329.02 751.851 1303.39C732.892 1283.35 717.153 1250.85 713.427 1215.96C710.38 1187.43 719.433 1157.39 730.875 1135.14C755.104 1088.05 793.393 1059.2 829.845 1038.69C842.695 1031.46 859.782 1022.58 873.209 1019.94Z"/><path fill="#32A372" d="M830.968 1101.19C843.103 1086.86 883.157 1085.08 899.088 1087.99C928.387 1093.36 960.652 1116.47 983.859 1144.33C984.416 1145 985.001 1147.52 985.24 1148.6C971.464 1138.03 959.11 1130.89 943.792 1126.67C924.135 1121.26 906.589 1118.68 887.241 1127.75C867.231 1137.13 847.388 1163.58 854.699 1198.14C855.644 1202.39 857.222 1207.01 859.125 1210.53C878.28 1242.57 903.116 1252.71 927.15 1275.16C930.226 1278.04 941.321 1286.57 943.188 1289.06C991.185 1323.63 1041.67 1389.99 1013.33 1476.56C1007.61 1494.02 997.306 1515.03 986.228 1525.51C970.971 1544.75 941.314 1568.76 923.562 1585.89C924.915 1578.4 926.386 1577.87 930.107 1572.77C962.353 1528.62 975.58 1452.63 949.123 1396.58C928.435 1352.76 899.424 1330.84 868.505 1308.05C831.283 1280.6 770.562 1237.17 787.906 1159.6C794.527 1130.79 812.957 1113.03 830.968 1101.19Z"/><path fill="#74B257" d="M943.188 1289.06C991.185 1323.63 1041.67 1389.99 1013.33 1476.56C1007.61 1494.02 997.306 1515.03 986.228 1525.51C986.327 1516.17 997.362 1499.18 1002.02 1491.55C1013.62 1472.58 1022.52 1426.02 1006.04 1407.99L1004.72 1406.56C1001.58 1390.47 1008.26 1385.81 1000.26 1374.39C996.056 1363.16 994.112 1354.35 989.118 1343.06C981.621 1326.1 945.696 1302.94 943.188 1289.06Z"/><path fill="#208475" d="M830.968 1101.19C843.103 1086.86 883.157 1085.08 899.088 1087.99C928.387 1093.36 960.652 1116.47 983.859 1144.33C984.416 1145 985.001 1147.52 985.24 1148.6C971.464 1138.03 959.11 1130.89 943.792 1126.67C924.135 1121.26 906.589 1118.68 887.241 1127.75C867.231 1137.13 847.388 1163.58 854.699 1198.14C855.644 1202.39 857.222 1207.01 859.125 1210.53C858.525 1211 857.085 1211.67 856.385 1212.03C854.77 1211.4 852.731 1210.86 852.016 1208.42C842.778 1176.92 852.112 1150.58 869.223 1134.48C895.07 1110.16 930.994 1115.86 958.271 1124.82C957.561 1124.19 956.844 1123.58 956.12 1122.98C914.496 1088.33 876.598 1081.43 830.968 1101.19Z"/><path fill="#32A372" d="M873.209 1019.94C898.434 1007.14 951.698 1007.1 978.623 1013.43L977.562 1013.58C973.046 1014.14 953.136 1012.9 951.427 1014.01C954.612 1016.02 955.56 1016.33 957.72 1020.34C959.133 1029.25 951.004 1035.07 946.069 1038.56C934.196 1032.1 914.636 1029.78 901.992 1026.7C895 1025 877.152 1028.01 873.209 1019.94Z"/><path fill="#F4A932" d="M610.47 601.75C616.41 600.319 626.873 599.144 630.646 607.419C637.819 623.151 643.537 642.647 649.251 659.713C655.276 677.94 661.809 695.779 668.832 713.182C702.662 713.993 720.164 716.884 753.21 726.835C774.32 693.633 800.646 661.292 822.869 629.052C826.591 623.652 835.283 626.556 840.086 628.259C842.847 632.037 845.192 634.353 846.1 639.674C844.911 649.58 801.359 734.087 794.217 748.354C810.287 766.271 816.351 765.523 834.173 791.68C814.021 793.104 792.251 793.249 772.362 796.454C738.452 801.918 695.856 822.493 665.867 847.526C624.783 881.821 586.332 932.387 549.276 975.402C547.181 977.834 545.731 979.369 543.085 979.062C510.96 957.862 501.679 959.147 499.262 902.89C485.997 901.051 472.664 901.542 459.392 900.205C423.662 896.604 387.805 897.026 352.117 893.294C345.942 892.648 337.654 890.192 337.092 878.84C336.635 869.608 343.192 864.833 348.322 863.323C361.735 860.207 375.508 859.478 389.016 857.452C428.599 851.59 469.007 850.983 508.511 845.317C517.539 827.526 524.37 812.168 534.208 794.023C517.836 774.8 497.715 759.45 480.919 741.084C475.212 734.844 453.688 715.541 458.681 703.036C469.452 676.066 501.217 710.526 514.065 718.473C532.581 731.995 548.774 744.742 567.207 755.881C587.828 743.752 599.195 732.521 622.358 725.08C616.568 695.834 606.009 643.759 604.71 612.178C604.52 607.554 608.002 604.193 610.47 601.75Z"/><path fill="#A8C94D" d="M978.623 1013.43C1013.88 1021.71 1047.46 1041.7 1076.91 1071.95C1086.54 1081.75 1098.74 1096.64 1108.3 1107.28C1147.08 1150.42 1170.6 1159.02 1217.26 1157.54C1273.51 1145.46 1309.29 1109.19 1365 1090.07C1398.15 1080.05 1442.52 1073.1 1475.86 1082.75C1456.56 1106.71 1334.58 1236.54 1315 1241.41C1310.14 1246.1 1290.66 1255.93 1283.65 1258.96C1224.5 1284.52 1163.42 1285.95 1104.28 1259.53C1088.92 1252.67 1070.16 1237.78 1056.2 1226.43C1057 1223.83 1056.83 1224.79 1056.93 1221.77C1052.44 1214.35 1023.42 1193.14 1030.35 1180.91C1031.86 1180.73 1033.08 1180.6 1034.6 1180.56L1035.8 1180.54C1036.63 1172.61 1037.43 1168.08 1033.62 1162.47C1035.23 1153.29 1038.71 1152.58 1041.96 1145.4C1042.79 1138.32 1039.65 1131.13 1037.4 1124.81C1037.29 1124.2 1036.94 1121.91 1036.69 1121.56C1011.39 1085.97 978.826 1054.97 946.069 1038.56C951.004 1035.07 959.133 1029.25 957.72 1020.34C955.56 1016.33 954.612 1016.02 951.427 1014.01C953.136 1012.9 973.046 1014.14 977.562 1013.58L978.623 1013.43Z"/><path fill="#74B257" d="M1037.4 1124.81L1038.84 1124.42C1049.86 1136.67 1060.3 1149.86 1071.5 1161.76C1075.65 1163.08 1078.92 1168.54 1082.92 1171.42C1094.83 1179.95 1106.71 1190.57 1118.75 1198.56C1169.33 1232.38 1226.48 1236.72 1279.08 1210.75C1286.73 1207.01 1304.75 1197.67 1310.56 1190.72C1316.58 1186.63 1332.98 1171.05 1338.76 1172.75C1348.6 1175.65 1341.24 1197.67 1351.5 1203.01L1351.9 1204.77C1345.73 1215.67 1311.58 1237.69 1301.62 1243.49C1305.02 1242.77 1311.99 1240.94 1315 1241.41C1310.14 1246.1 1290.66 1255.93 1283.65 1258.96C1224.5 1284.52 1163.42 1285.95 1104.28 1259.53C1088.92 1252.67 1070.16 1237.78 1056.2 1226.43C1057 1223.83 1056.83 1224.79 1056.93 1221.77C1052.44 1214.35 1023.42 1193.14 1030.35 1180.91C1031.86 1180.73 1033.08 1180.6 1034.6 1180.56L1035.8 1180.54C1036.63 1172.61 1037.43 1168.08 1033.62 1162.47C1035.23 1153.29 1038.71 1152.58 1041.96 1145.4C1042.79 1138.32 1039.65 1131.13 1037.4 1124.81Z"/><defs><linearGradient id="gradient_7" gradientUnits="userSpaceOnUse" x1="1081.9225" y1="1144.0114" x2="965.97107" y2="996.1084"><stop offset="0" stop-color="#6EBD5E"/><stop offset="1" stop-color="#2DAF79"/></linearGradient></defs><path fill="url(#gradient_7)" d="M978.623 1013.43C1013.88 1021.71 1047.46 1041.7 1076.91 1071.95C1086.54 1081.75 1098.74 1096.64 1108.3 1107.28C1147.08 1150.42 1170.6 1159.02 1217.26 1157.54C1212.26 1164.33 1203.2 1163.87 1196.79 1163.51C1167.72 1161.88 1140.92 1148.65 1117.22 1123.25C1115.41 1121.31 1105.7 1111.53 1102.68 1109.81C1097.59 1112.83 1076.35 1157.32 1071.5 1161.76C1060.3 1149.86 1049.86 1136.67 1038.84 1124.42L1037.4 1124.81C1037.29 1124.2 1036.94 1121.91 1036.69 1121.56C1011.39 1085.97 978.826 1054.97 946.069 1038.56C951.004 1035.07 959.133 1029.25 957.72 1020.34C955.56 1016.33 954.612 1016.02 951.427 1014.01C953.136 1012.9 973.046 1014.14 977.562 1013.58L978.623 1013.43Z"/><path fill="#CFC13E" d="M1365 1090.07C1398.15 1080.05 1442.52 1073.1 1475.86 1082.75C1456.56 1106.71 1334.58 1236.54 1315 1241.41C1311.99 1240.94 1305.02 1242.77 1301.62 1243.49C1311.58 1237.69 1345.73 1215.67 1351.9 1204.77L1351.5 1203.01C1341.24 1197.67 1348.6 1175.65 1338.76 1172.75C1332.98 1171.05 1316.58 1186.63 1310.56 1190.72L1309.36 1190.26L1309.46 1189.45C1323.29 1181.87 1332.82 1167.28 1344.86 1156.43C1365.28 1138.02 1390.44 1124.24 1412.16 1109.76C1423.07 1102.49 1452.82 1092.85 1460.4 1084.67C1441.43 1081.64 1411.09 1083.64 1391.94 1087.28C1383.63 1088.86 1375.08 1092.89 1365.57 1094.28L1365 1090.07Z"/><defs><linearGradient id="gradient_8" gradientUnits="userSpaceOnUse" x1="1163.5208" y1="1007.5013" x2="1195.0526" y2="807.20941"><stop offset="0" stop-color="#1D9AB2"/><stop offset="1" stop-color="#2BC8BA"/></linearGradient></defs><path fill="url(#gradient_8)" d="M1162.92 805.262C1194.23 801.265 1228.92 808.255 1255.12 836.414C1282.21 865.317 1292.04 916.899 1270.49 958.38C1252.53 992.953 1225.58 1005.83 1197.78 1011.14C1165.68 1015.85 1130.36 1007.58 1103.79 978.725C1077.42 950.094 1067.17 900.883 1088.62 859.865C1107.02 824.675 1134.44 811.21 1162.92 805.262Z"/><defs><linearGradient id="gradient_9" gradientUnits="userSpaceOnUse" x1="279.53372" y1="1403.4154" x2="306.85709" y2="1213.8577"><stop offset="0" stop-color="#1A74B4"/><stop offset="1" stop-color="#2FC5E0"/></linearGradient></defs><path fill="url(#gradient_9)" d="M220.899 1328.38C240.321 1301.18 350.709 1239.26 379.402 1227.57C364.277 1251.34 350.512 1269.29 335.829 1294.72C329.345 1305.96 323.25 1317.69 317.57 1329.87C309.106 1347.84 302.554 1364.62 291.151 1379.05C275.88 1398.39 256.162 1406.27 237.073 1394.22C216.26 1384.9 202.7 1355.73 220.899 1328.38Z"/><path fill="#187BAF" d="M220.899 1328.38C220.645 1336.02 220.079 1339.7 219.034 1347.03L219.648 1348.51C223.797 1358.36 230.751 1365.14 229.997 1376.73C229.308 1387.31 235.668 1384.03 237.073 1394.22C216.26 1384.9 202.7 1355.73 220.899 1328.38Z"/><defs><linearGradient id="gradient_10" gradientUnits="userSpaceOnUse" x1="460.06128" y1="1348.8458" x2="497.01938" y2="1208.6523"><stop offset="0" stop-color="#1D84BD"/><stop offset="1" stop-color="#29BFDE"/></linearGradient></defs><path fill="url(#gradient_10)" d="M401.109 1292.62C431.401 1252.34 469.263 1215.05 511.446 1219.13C525.248 1220.36 540.648 1226.42 550.446 1241.74C560.099 1256.83 556.894 1284.73 546.426 1296.15C527.256 1317.06 504.017 1314.51 483.486 1299.96C470.685 1290.88 448.122 1308.05 435.969 1316.42C424.669 1316.09 421.296 1323.96 407.233 1320.5C397.677 1306.6 398.143 1312.71 401.109 1292.62Z"/><path fill="#313736" fill-opacity="0.015686275" d="M1232.99 1361.32C1243.89 1348.95 1263.65 1372.53 1269.83 1385.96C1276.11 1399.55 1278.32 1416.47 1275.93 1432.62C1274.48 1442.85 1269.83 1454.94 1266.67 1464.83C1255.22 1500.74 1238.13 1533.36 1220.74 1563.29C1218.92 1566.42 1211.96 1575.77 1211.65 1578.63C1213.57 1583.22 1214.58 1587.52 1217.39 1589.27C1225.62 1585.7 1219.9 1577.5 1228.83 1572.47C1233.02 1570.11 1237 1567.8 1241.37 1565.8L1241.84 1561.43C1244.13 1560.8 1245.51 1561.78 1247.75 1562.77L1249.29 1561.62C1249.4 1557.63 1248.58 1556.24 1249.65 1552.55C1251.8 1552.88 1250.97 1552.65 1252.98 1554.66C1260.97 1553.7 1270.49 1529.25 1275.94 1531.12L1276.67 1536.72C1236.01 1588.51 1191.35 1632.76 1143.64 1668.5C1136.56 1673.8 1121.61 1684.95 1114.53 1687.41C1124.23 1674.99 1141.76 1660.83 1153.49 1646.11C1193.61 1595.98 1233.72 1542.91 1259.04 1473.18C1267.61 1449.57 1279.12 1422.47 1268.54 1395.89C1260.23 1375.02 1247.77 1367.37 1232.99 1361.32Z"/><path fill="#187BAF" d="M401.109 1292.62C398.143 1312.71 397.677 1306.6 407.233 1320.5C421.296 1323.96 424.669 1316.09 435.969 1316.42C407.786 1338.79 378.596 1370.32 351.602 1391.05C364.902 1352.17 378.323 1321.4 401.109 1292.62Z"/><path fill="#28BAD6" fill-opacity="0.92156863" d="M1018.98 995.004C1022.15 999.26 1030.95 1010.55 1032.36 1015.71C1028.38 1015.65 1017.51 1005.75 1013.59 1002.72C1014.74 1000.11 1017.09 996.312 1018.98 995.004Z"/></svg>